<?xml version="1.0" encoding="UTF-8"?>
<svg xmlns="http://www.w3.org/2000/svg" xmlns:xlink="http://www.w3.org/1999/xlink" width="420pt" height="500pt" viewBox="0 0 420 500" version="1.1">
<g id="surface782">
<rect x="0" y="0" width="420" height="500" style="fill:rgb(100%,100%,100%);fill-opacity:1;stroke:none;"/>
<path style=" stroke:none;fill-rule:nonzero;fill:rgb(79.6%,23.5%,20%);fill-opacity:0.96;" d="M 287.121094 251 L 330.527344 251 L 273.707031 292.285156 "/>
<path style=" stroke:none;fill-rule:nonzero;fill:rgb(79.6%,23.5%,20%);fill-opacity:0.96;" d="M 334.78125 339.421875 L 348.195312 298.140625 L 369.902344 364.9375 "/>
<path style=" stroke:none;fill-rule:nonzero;fill:rgb(58.4%,34.5%,69.8%);fill-opacity:0.96;" d="M 274.882812 295.902344 L 346.820312 295.902344 L 333.082031 338.1875 "/>
<path style=" stroke:none;fill-rule:nonzero;fill:rgb(22%,59.6%,14.9%);fill-opacity:0.96;" d="M 274.882812 293.902344 L 333.082031 251.617188 L 346.820312 293.902344 "/>
<path style=" stroke:none;fill-rule:nonzero;fill:rgb(22%,59.6%,14.9%);fill-opacity:0.96;" d="M 385.21875 323.035156 L 371.804688 364.320312 L 350.097656 297.519531 "/>
<path style=" stroke:none;fill-rule:nonzero;fill:rgb(58.4%,34.5%,69.8%);fill-opacity:0.96;" d="M 408.097656 252.617188 L 385.867188 321.035156 L 349.898438 294.902344 "/>
<path style=" stroke:none;fill-rule:nonzero;fill:rgb(79.6%,23.5%,20%);fill-opacity:0.96;" d="M 406.921875 251 L 348.722656 293.285156 L 334.984375 251 "/>
<path style=" stroke:none;fill-rule:nonzero;fill:rgb(22%,59.6%,14.9%);fill-opacity:0.96;" d="M 234.78125 323.035156 L 269.902344 297.519531 L 248.195312 364.320312 "/>
<path style=" stroke:none;fill-rule:nonzero;fill:rgb(22%,59.6%,14.9%);fill-opacity:0.96;" d="M 333.605469 341.042969 L 368.726562 366.558594 L 298.488281 366.558594 "/>
<path style=" stroke:none;fill-rule:nonzero;fill:rgb(79.6%,23.5%,20%);fill-opacity:0.96;" d="M 273.707031 297.519531 L 331.90625 339.804688 L 295.9375 365.9375 "/>
<path style=" stroke:none;fill-rule:nonzero;fill:rgb(58.4%,34.5%,69.8%);fill-opacity:0.96;" d="M 271.804688 298.140625 L 294.035156 366.558594 L 249.574219 366.558594 "/>
<path style=" stroke:none;fill-rule:nonzero;fill:rgb(58.4%,34.5%,69.8%);fill-opacity:0.96;" d="M 333.605469 394.074219 L 298.488281 368.558594 L 368.726562 368.558594 "/>
<path style=" stroke:none;fill-rule:nonzero;fill:rgb(79.6%,23.5%,20%);fill-opacity:0.96;" d="M 273.707031 437.59375 L 295.9375 369.175781 L 331.90625 395.308594 "/>
<path style=" stroke:none;fill-rule:nonzero;fill:rgb(22%,59.6%,14.9%);fill-opacity:0.96;" d="M 271.804688 436.976562 L 249.574219 368.558594 L 294.035156 368.558594 "/>
<path style=" stroke:none;fill-rule:nonzero;fill:rgb(79.6%,23.5%,20%);fill-opacity:0.96;" d="M 232.878906 323.652344 L 246.292969 364.9375 L 189.472656 323.652344 "/>
<path style=" stroke:none;fill-rule:nonzero;fill:rgb(79.6%,23.5%,20%);fill-opacity:0.96;" d="M 163.511719 396.308594 L 206.921875 396.308594 L 150.097656 437.59375 "/>
<path style=" stroke:none;fill-rule:nonzero;fill:rgb(22%,59.6%,14.9%);fill-opacity:0.96;" d="M 186.394531 325.890625 L 208.625 394.308594 L 164.164062 394.308594 "/>
<path style=" stroke:none;fill-rule:nonzero;fill:rgb(58.4%,34.5%,69.8%);fill-opacity:0.96;" d="M 188.296875 325.273438 L 246.496094 367.558594 L 210.527344 393.691406 "/>
<path style=" stroke:none;fill-rule:nonzero;fill:rgb(22%,59.6%,14.9%);fill-opacity:0.96;" d="M 194.683594 439.210938 L 151.273438 439.210938 L 208.097656 397.925781 "/>
<path style=" stroke:none;fill-rule:nonzero;fill:rgb(58.4%,34.5%,69.8%);fill-opacity:0.96;" d="M 268.726562 439.210938 L 196.785156 439.210938 L 210.527344 396.925781 "/>
<path style=" stroke:none;fill-rule:nonzero;fill:rgb(79.6%,23.5%,20%);fill-opacity:0.96;" d="M 269.902344 437.59375 L 211.703125 395.308594 L 247.671875 369.175781 "/>
<path style=" stroke:none;fill-rule:nonzero;fill:rgb(22%,59.6%,14.9%);fill-opacity:0.96;" d="M 148.195312 296.140625 L 183.316406 321.652344 L 113.078125 321.652344 "/>
<path style=" stroke:none;fill-rule:nonzero;fill:rgb(58.4%,34.5%,69.8%);fill-opacity:0.96;" d="M 161.609375 395.691406 L 148.195312 436.976562 L 126.492188 370.175781 "/>
<path style=" stroke:none;fill-rule:nonzero;fill:rgb(79.6%,23.5%,20%);fill-opacity:0.96;" d="M 184.492188 325.273438 L 162.261719 393.691406 L 126.292969 367.558594 "/>
<path style=" stroke:none;fill-rule:nonzero;fill:rgb(58.4%,34.5%,69.8%);fill-opacity:0.96;" d="M 183.316406 323.652344 L 125.117188 365.9375 L 111.375 323.652344 "/>
<path style=" stroke:none;fill-rule:nonzero;fill:rgb(22%,59.6%,14.9%);fill-opacity:0.96;" d="M 111.175781 412.078125 L 124.589844 370.792969 L 146.292969 437.59375 "/>
<path style=" stroke:none;fill-rule:nonzero;fill:rgb(79.6%,23.5%,20%);fill-opacity:0.96;" d="M 51.273438 368.558594 L 123.214844 368.558594 L 109.472656 410.84375 "/>
<path style=" stroke:none;fill-rule:nonzero;fill:rgb(22%,59.6%,14.9%);fill-opacity:0.96;" d="M 51.273438 366.558594 L 109.472656 324.273438 L 123.214844 366.558594 "/>
<path style=" stroke:none;fill-rule:nonzero;fill:rgb(79.6%,23.5%,20%);fill-opacity:0.96;" d="M 147.019531 294.519531 L 111.902344 320.035156 L 133.605469 253.234375 "/>
<path style=" stroke:none;fill-rule:nonzero;fill:rgb(79.6%,23.5%,20%);fill-opacity:0.96;" d="M 56.488281 251 L 69.902344 292.285156 L 13.078125 251 "/>
<path style=" stroke:none;fill-rule:nonzero;fill:rgb(22%,59.6%,14.9%);fill-opacity:0.96;" d="M 130.527344 251 L 72.328125 293.285156 L 58.589844 251 "/>
<path style=" stroke:none;fill-rule:nonzero;fill:rgb(58.4%,34.5%,69.8%);fill-opacity:0.96;" d="M 131.703125 252.617188 L 109.472656 321.035156 L 73.503906 294.902344 "/>
<path style=" stroke:none;fill-rule:nonzero;fill:rgb(22%,59.6%,14.9%);fill-opacity:0.96;" d="M 25.316406 293.902344 L 11.902344 252.617188 L 68.726562 293.902344 "/>
<path style=" stroke:none;fill-rule:nonzero;fill:rgb(58.4%,34.5%,69.8%);fill-opacity:0.96;" d="M 48.195312 364.320312 L 25.964844 295.902344 L 70.425781 295.902344 "/>
<path style=" stroke:none;fill-rule:nonzero;fill:rgb(79.6%,23.5%,20%);fill-opacity:0.96;" d="M 50.097656 364.9375 L 72.328125 296.519531 L 108.296875 322.652344 "/>
<path style=" stroke:none;fill-rule:nonzero;fill:rgb(22%,59.6%,14.9%);fill-opacity:0.96;" d="M 147.019531 205.480469 L 133.605469 246.765625 L 111.902344 179.964844 "/>
<path style=" stroke:none;fill-rule:nonzero;fill:rgb(22%,59.6%,14.9%);fill-opacity:0.96;" d="M 56.488281 249 L 13.078125 249 L 69.902344 207.714844 "/>
<path style=" stroke:none;fill-rule:nonzero;fill:rgb(79.6%,23.5%,20%);fill-opacity:0.96;" d="M 130.527344 249 L 58.589844 249 L 72.328125 206.714844 "/>
<path style=" stroke:none;fill-rule:nonzero;fill:rgb(58.4%,34.5%,69.8%);fill-opacity:0.96;" d="M 131.703125 247.382812 L 73.503906 205.097656 L 109.472656 178.964844 "/>
<path style=" stroke:none;fill-rule:nonzero;fill:rgb(79.6%,23.5%,20%);fill-opacity:0.96;" d="M 25.316406 206.097656 L 68.726562 206.097656 L 11.902344 247.382812 "/>
<path style=" stroke:none;fill-rule:nonzero;fill:rgb(22%,59.6%,14.9%);fill-opacity:0.96;" d="M 48.195312 135.679688 L 70.425781 204.097656 L 25.964844 204.097656 "/>
<path style=" stroke:none;fill-rule:nonzero;fill:rgb(79.6%,23.5%,20%);fill-opacity:0.96;" d="M 50.097656 135.0625 L 108.296875 177.347656 L 72.328125 203.480469 "/>
<path style=" stroke:none;fill-rule:nonzero;fill:rgb(79.6%,23.5%,20%);fill-opacity:0.96;" d="M 148.195312 203.859375 L 113.078125 178.347656 L 183.316406 178.347656 "/>
<path style=" stroke:none;fill-rule:nonzero;fill:rgb(79.6%,23.5%,20%);fill-opacity:0.96;" d="M 161.609375 104.308594 L 126.492188 129.824219 L 148.195312 63.023438 "/>
<path style=" stroke:none;fill-rule:nonzero;fill:rgb(22%,59.6%,14.9%);fill-opacity:0.96;" d="M 184.492188 174.726562 L 126.292969 132.441406 L 162.261719 106.308594 "/>
<path style=" stroke:none;fill-rule:nonzero;fill:rgb(58.4%,34.5%,69.8%);fill-opacity:0.96;" d="M 183.316406 176.347656 L 111.375 176.347656 L 125.117188 134.0625 "/>
<path style=" stroke:none;fill-rule:nonzero;fill:rgb(22%,59.6%,14.9%);fill-opacity:0.96;" d="M 111.175781 87.921875 L 146.292969 62.40625 L 124.589844 129.207031 "/>
<path style=" stroke:none;fill-rule:nonzero;fill:rgb(79.6%,23.5%,20%);fill-opacity:0.96;" d="M 51.273438 131.441406 L 109.472656 89.15625 L 123.214844 131.441406 "/>
<path style=" stroke:none;fill-rule:nonzero;fill:rgb(22%,59.6%,14.9%);fill-opacity:0.96;" d="M 51.273438 133.441406 L 123.214844 133.441406 L 109.472656 175.726562 "/>
<path style=" stroke:none;fill-rule:nonzero;fill:rgb(22%,59.6%,14.9%);fill-opacity:0.96;" d="M 232.878906 176.347656 L 189.472656 176.347656 L 246.292969 135.0625 "/>
<path style=" stroke:none;fill-rule:nonzero;fill:rgb(22%,59.6%,14.9%);fill-opacity:0.96;" d="M 163.511719 103.691406 L 150.097656 62.40625 L 206.921875 103.691406 "/>
<path style=" stroke:none;fill-rule:nonzero;fill:rgb(58.4%,34.5%,69.8%);fill-opacity:0.96;" d="M 186.394531 174.109375 L 164.164062 105.691406 L 208.625 105.691406 "/>
<path style=" stroke:none;fill-rule:nonzero;fill:rgb(79.6%,23.5%,20%);fill-opacity:0.96;" d="M 188.296875 174.726562 L 210.527344 106.308594 L 246.496094 132.441406 "/>
<path style=" stroke:none;fill-rule:nonzero;fill:rgb(79.6%,23.5%,20%);fill-opacity:0.96;" d="M 194.683594 60.789062 L 208.097656 102.074219 L 151.273438 60.789062 "/>
<path style=" stroke:none;fill-rule:nonzero;fill:rgb(58.4%,34.5%,69.8%);fill-opacity:0.96;" d="M 268.726562 60.789062 L 210.527344 103.074219 L 196.785156 60.789062 "/>
<path style=" stroke:none;fill-rule:nonzero;fill:rgb(22%,59.6%,14.9%);fill-opacity:0.96;" d="M 269.902344 62.40625 L 247.671875 130.824219 L 211.703125 104.691406 "/>
<path style=" stroke:none;fill-rule:nonzero;fill:rgb(58.4%,34.5%,69.8%);fill-opacity:0.96;" d="M 234.78125 176.964844 L 248.195312 135.679688 L 269.902344 202.480469 "/>
<path style=" stroke:none;fill-rule:nonzero;fill:rgb(79.6%,23.5%,20%);fill-opacity:0.96;" d="M 333.605469 158.957031 L 298.488281 133.441406 L 368.726562 133.441406 "/>
<path style=" stroke:none;fill-rule:nonzero;fill:rgb(22%,59.6%,14.9%);fill-opacity:0.96;" d="M 273.707031 202.480469 L 295.9375 134.0625 L 331.90625 160.195312 "/>
<path style=" stroke:none;fill-rule:nonzero;fill:rgb(79.6%,23.5%,20%);fill-opacity:0.96;" d="M 271.804688 201.859375 L 249.574219 133.441406 L 294.035156 133.441406 "/>
<path style=" stroke:none;fill-rule:nonzero;fill:rgb(58.4%,34.5%,69.8%);fill-opacity:0.96;" d="M 333.605469 105.925781 L 368.726562 131.441406 L 298.488281 131.441406 "/>
<path style=" stroke:none;fill-rule:nonzero;fill:rgb(22%,59.6%,14.9%);fill-opacity:0.96;" d="M 273.707031 62.40625 L 331.90625 104.691406 L 295.9375 130.824219 "/>
<path style=" stroke:none;fill-rule:nonzero;fill:rgb(58.4%,34.5%,69.8%);fill-opacity:0.96;" d="M 271.804688 63.023438 L 294.035156 131.441406 L 249.574219 131.441406 "/>
<path style=" stroke:none;fill-rule:nonzero;fill:rgb(58.4%,34.5%,69.8%);fill-opacity:0.96;" d="M 287.121094 249 L 273.707031 207.714844 L 330.527344 249 "/>
<path style=" stroke:none;fill-rule:nonzero;fill:rgb(58.4%,34.5%,69.8%);fill-opacity:0.96;" d="M 334.78125 160.578125 L 369.902344 135.0625 L 348.195312 201.859375 "/>
<path style=" stroke:none;fill-rule:nonzero;fill:rgb(79.6%,23.5%,20%);fill-opacity:0.96;" d="M 274.882812 204.097656 L 333.082031 161.8125 L 346.820312 204.097656 "/>
<path style=" stroke:none;fill-rule:nonzero;fill:rgb(22%,59.6%,14.9%);fill-opacity:0.96;" d="M 274.882812 206.097656 L 346.820312 206.097656 L 333.082031 248.382812 "/>
<path style=" stroke:none;fill-rule:nonzero;fill:rgb(22%,59.6%,14.9%);fill-opacity:0.96;" d="M 385.21875 176.964844 L 350.097656 202.480469 L 371.804688 135.679688 "/>
<path style=" stroke:none;fill-rule:nonzero;fill:rgb(79.6%,23.5%,20%);fill-opacity:0.96;" d="M 408.097656 247.382812 L 349.898438 205.097656 L 385.867188 178.964844 "/>
<path style=" stroke:none;fill-rule:nonzero;fill:rgb(58.4%,34.5%,69.8%);fill-opacity:0.96;" d="M 406.921875 249 L 334.984375 249 L 348.722656 206.714844 "/>
<path style=" stroke:none;fill-rule:nonzero;fill:rgb(100%,100%,100%);fill-opacity:0.96;" d="M 298.769531 264.96875 C 298.769531 266.96875 295.769531 266.96875 295.769531 264.96875 C 295.769531 262.96875 298.769531 262.96875 298.769531 264.96875 "/>
<path style=" stroke:none;fill-rule:nonzero;fill:rgb(100%,100%,100%);fill-opacity:0.96;" d="M 319.617188 279.933594 C 319.617188 282.269531 316.117188 282.269531 316.117188 279.933594 C 316.117188 277.601562 319.617188 277.601562 319.617188 279.933594 "/>
<path style="fill:none;stroke-width:2;stroke-linecap:butt;stroke-linejoin:miter;stroke:rgb(0%,0%,0%);stroke-opacity:0.96;stroke-miterlimit:10;" d="M 298.8125 266.089844 L 310.433594 274.53125 "/>
<path style=" stroke:none;fill-rule:nonzero;fill:rgb(0%,0%,0%);fill-opacity:0.96;" d="M 313.542969 270.253906 L 316.324219 278.8125 L 307.324219 278.8125 "/>
<path style=" stroke:none;fill-rule:nonzero;fill:rgb(100%,100%,100%);fill-opacity:0.96;" d="M 298.769531 264.96875 C 298.769531 266.96875 295.769531 266.96875 295.769531 264.96875 C 295.769531 262.96875 298.769531 262.96875 298.769531 264.96875 "/>
<path style=" stroke:none;fill-rule:nonzero;fill:rgb(100%,100%,100%);fill-opacity:0.96;" d="M 299.019531 235.03125 C 299.019531 237.367188 295.519531 237.367188 295.519531 235.03125 C 295.519531 232.699219 299.019531 232.699219 299.019531 235.03125 "/>
<path style="fill:none;stroke-width:2;stroke-linecap:butt;stroke-linejoin:miter;stroke:rgb(0%,0%,0%);stroke-opacity:0.96;stroke-miterlimit:10;" d="M 297.269531 262.722656 L 297.269531 244.558594 "/>
<path style=" stroke:none;fill-rule:nonzero;fill:rgb(0%,0%,0%);fill-opacity:0.96;" d="M 291.976562 244.558594 L 297.269531 237.277344 L 302.558594 244.558594 "/>
<path style=" stroke:none;fill-rule:nonzero;fill:rgb(100%,100%,100%);fill-opacity:0.96;" d="M 352.703125 334.089844 C 352.703125 336.089844 349.703125 336.089844 349.703125 334.089844 C 349.703125 332.089844 352.703125 332.089844 352.703125 334.089844 "/>
<path style=" stroke:none;fill-rule:nonzero;fill:rgb(100%,100%,100%);fill-opacity:0.96;" d="M 319.617188 309.871094 C 319.617188 312.203125 316.117188 312.203125 316.117188 309.871094 C 316.117188 307.535156 319.617188 307.535156 319.617188 309.871094 "/>
<path style="fill:none;stroke-width:2;stroke-linecap:butt;stroke-linejoin:miter;stroke:rgb(0%,0%,0%);stroke-opacity:0.96;stroke-miterlimit:10;" d="M 348.703125 332.273438 L 326.257812 315.964844 "/>
<path style=" stroke:none;fill-rule:nonzero;fill:rgb(0%,0%,0%);fill-opacity:0.96;" d="M 323.148438 320.246094 L 320.367188 311.6875 L 329.367188 311.6875 "/>
<path style=" stroke:none;fill-rule:nonzero;fill:rgb(100%,100%,100%);fill-opacity:0.96;" d="M 352.703125 334.089844 C 352.703125 336.089844 349.703125 336.089844 349.703125 334.089844 C 349.703125 332.089844 352.703125 332.089844 352.703125 334.089844 "/>
<path style=" stroke:none;fill-rule:nonzero;fill:rgb(100%,100%,100%);fill-opacity:0.96;" d="M 370.546875 328.371094 C 370.546875 330.703125 367.046875 330.703125 367.046875 328.371094 C 367.046875 326.039062 370.546875 326.039062 370.546875 328.371094 "/>
<path style="fill:none;stroke-width:2;stroke-linecap:butt;stroke-linejoin:miter;stroke:rgb(0%,0%,0%);stroke-opacity:0.96;stroke-miterlimit:10;" d="M 352.523438 333.660156 L 360.554688 331.050781 "/>
<path style=" stroke:none;fill-rule:nonzero;fill:rgb(0%,0%,0%);fill-opacity:0.96;" d="M 358.917969 326.019531 L 367.476562 328.800781 L 362.1875 336.082031 "/>
<path style=" stroke:none;fill-rule:nonzero;fill:rgb(100%,100%,100%);fill-opacity:0.96;" d="M 352.703125 334.089844 C 352.703125 336.089844 349.703125 336.089844 349.703125 334.089844 C 349.703125 332.089844 352.703125 332.089844 352.703125 334.089844 "/>
<path style=" stroke:none;fill-rule:nonzero;fill:rgb(100%,100%,100%);fill-opacity:0.96;" d="M 335.355469 358.304688 C 335.355469 360.640625 331.855469 360.640625 331.855469 358.304688 C 331.855469 355.972656 335.355469 355.972656 335.355469 358.304688 "/>
<path style="fill:none;stroke-width:2;stroke-linecap:butt;stroke-linejoin:miter;stroke:rgb(0%,0%,0%);stroke-opacity:0.96;stroke-miterlimit:10;" d="M 349.882812 335.90625 L 339.207031 350.601562 "/>
<path style=" stroke:none;fill-rule:nonzero;fill:rgb(0%,0%,0%);fill-opacity:0.96;" d="M 343.484375 353.710938 L 334.925781 356.488281 L 334.925781 347.488281 "/>
<path style=" stroke:none;fill-rule:nonzero;fill:rgb(100%,100%,100%);fill-opacity:0.96;" d="M 319.367188 309.871094 C 319.367188 311.871094 316.367188 311.871094 316.367188 309.871094 C 316.367188 307.871094 319.367188 307.871094 319.367188 309.871094 "/>
<path style=" stroke:none;fill-rule:nonzero;fill:rgb(100%,100%,100%);fill-opacity:0.96;" d="M 319.617188 279.933594 C 319.617188 282.269531 316.117188 282.269531 316.117188 279.933594 C 316.117188 277.601562 319.617188 277.601562 319.617188 279.933594 "/>
<path style="fill:none;stroke-width:2;stroke-linecap:butt;stroke-linejoin:miter;stroke:rgb(0%,0%,0%);stroke-opacity:0.96;stroke-miterlimit:10;" d="M 317.867188 307.625 L 317.867188 289.460938 "/>
<path style=" stroke:none;fill-rule:nonzero;fill:rgb(0%,0%,0%);fill-opacity:0.96;" d="M 312.578125 289.460938 L 317.867188 282.179688 L 323.160156 289.460938 "/>
<path style=" stroke:none;fill-rule:nonzero;fill:rgb(100%,100%,100%);fill-opacity:0.96;" d="M 319.367188 309.871094 C 319.367188 311.871094 316.367188 311.871094 316.367188 309.871094 C 316.367188 307.871094 319.367188 307.871094 319.367188 309.871094 "/>
<path style=" stroke:none;fill-rule:nonzero;fill:rgb(100%,100%,100%);fill-opacity:0.96;" d="M 302.023438 334.089844 C 302.023438 336.421875 298.523438 336.421875 298.523438 334.089844 C 298.523438 331.753906 302.023438 331.753906 302.023438 334.089844 "/>
<path style="fill:none;stroke-width:2;stroke-linecap:butt;stroke-linejoin:miter;stroke:rgb(0%,0%,0%);stroke-opacity:0.96;stroke-miterlimit:10;" d="M 316.550781 311.6875 L 305.871094 326.382812 "/>
<path style=" stroke:none;fill-rule:nonzero;fill:rgb(0%,0%,0%);fill-opacity:0.96;" d="M 310.152344 329.492188 L 301.59375 332.273438 L 301.59375 323.273438 "/>
<path style=" stroke:none;fill-rule:nonzero;fill:rgb(100%,100%,100%);fill-opacity:0.96;" d="M 319.367188 279.933594 C 319.367188 281.933594 316.367188 281.933594 316.367188 279.933594 C 316.367188 277.933594 319.367188 277.933594 319.367188 279.933594 "/>
<path style=" stroke:none;fill-rule:nonzero;fill:rgb(100%,100%,100%);fill-opacity:0.96;" d="M 365.683594 264.96875 C 365.683594 267.300781 362.183594 267.300781 362.183594 264.96875 C 362.183594 262.632812 365.683594 262.632812 365.683594 264.96875 "/>
<path style="fill:none;stroke-width:2;stroke-linecap:butt;stroke-linejoin:miter;stroke:rgb(0%,0%,0%);stroke-opacity:0.96;stroke-miterlimit:10;" d="M 321.324219 278.8125 L 353.554688 268.339844 "/>
<path style=" stroke:none;fill-rule:nonzero;fill:rgb(0%,0%,0%);fill-opacity:0.96;" d="M 351.921875 263.308594 L 360.480469 266.089844 L 355.191406 273.371094 "/>
<path style=" stroke:none;fill-rule:nonzero;fill:rgb(100%,100%,100%);fill-opacity:0.96;" d="M 370.296875 328.371094 C 370.296875 330.371094 367.296875 330.371094 367.296875 328.371094 C 367.296875 326.371094 370.296875 326.371094 370.296875 328.371094 "/>
<path style=" stroke:none;fill-rule:nonzero;fill:rgb(100%,100%,100%);fill-opacity:0.96;" d="M 383.28125 289.1875 C 383.28125 291.519531 379.78125 291.519531 379.78125 289.1875 C 379.78125 286.851562 383.28125 286.851562 383.28125 289.1875 "/>
<path style="fill:none;stroke-width:2;stroke-linecap:butt;stroke-linejoin:miter;stroke:rgb(0%,0%,0%);stroke-opacity:0.96;stroke-miterlimit:10;" d="M 369.753906 325.433594 L 378.324219 299.050781 "/>
<path style=" stroke:none;fill-rule:nonzero;fill:rgb(0%,0%,0%);fill-opacity:0.96;" d="M 373.292969 297.414062 L 380.574219 292.125 L 383.355469 300.683594 "/>
<path style=" stroke:none;fill-rule:nonzero;fill:rgb(100%,100%,100%);fill-opacity:0.96;" d="M 383.03125 289.1875 C 383.03125 291.1875 380.03125 291.1875 380.03125 289.1875 C 380.03125 287.1875 383.03125 287.1875 383.03125 289.1875 "/>
<path style=" stroke:none;fill-rule:nonzero;fill:rgb(100%,100%,100%);fill-opacity:0.96;" d="M 365.683594 264.96875 C 365.683594 267.300781 362.183594 267.300781 362.183594 264.96875 C 362.183594 262.632812 365.683594 262.632812 365.683594 264.96875 "/>
<path style="fill:none;stroke-width:2;stroke-linecap:butt;stroke-linejoin:miter;stroke:rgb(0%,0%,0%);stroke-opacity:0.96;stroke-miterlimit:10;" d="M 380.210938 287.371094 L 369.535156 272.675781 "/>
<path style=" stroke:none;fill-rule:nonzero;fill:rgb(0%,0%,0%);fill-opacity:0.96;" d="M 365.253906 275.785156 L 365.253906 266.785156 L 373.8125 269.566406 "/>
<path style=" stroke:none;fill-rule:nonzero;fill:rgb(100%,100%,100%);fill-opacity:0.96;" d="M 365.433594 264.96875 C 365.433594 266.96875 362.433594 266.96875 362.433594 264.96875 C 362.433594 262.96875 365.433594 262.96875 365.433594 264.96875 "/>
<path style=" stroke:none;fill-rule:nonzero;fill:rgb(100%,100%,100%);fill-opacity:0.96;" d="M 365.683594 235.03125 C 365.683594 237.367188 362.183594 237.367188 362.183594 235.03125 C 362.183594 232.699219 365.683594 232.699219 365.683594 235.03125 "/>
<path style="fill:none;stroke-width:2;stroke-linecap:butt;stroke-linejoin:miter;stroke:rgb(0%,0%,0%);stroke-opacity:0.96;stroke-miterlimit:10;" d="M 363.933594 262.722656 L 363.933594 244.558594 "/>
<path style=" stroke:none;fill-rule:nonzero;fill:rgb(0%,0%,0%);fill-opacity:0.96;" d="M 358.644531 244.558594 L 363.933594 237.277344 L 369.222656 244.558594 "/>
<path style=" stroke:none;fill-rule:nonzero;fill:rgb(100%,100%,100%);fill-opacity:0.96;" d="M 252.703125 328.371094 C 252.703125 330.371094 249.703125 330.371094 249.703125 328.371094 C 249.703125 326.371094 252.703125 326.371094 252.703125 328.371094 "/>
<path style=" stroke:none;fill-rule:nonzero;fill:rgb(100%,100%,100%);fill-opacity:0.96;" d="M 273.554688 343.339844 C 273.554688 345.671875 270.054688 345.671875 270.054688 343.339844 C 270.054688 341.003906 273.554688 341.003906 273.554688 343.339844 "/>
<path style="fill:none;stroke-width:2;stroke-linecap:butt;stroke-linejoin:miter;stroke:rgb(0%,0%,0%);stroke-opacity:0.96;stroke-miterlimit:10;" d="M 252.746094 329.492188 L 264.367188 337.9375 "/>
<path style=" stroke:none;fill-rule:nonzero;fill:rgb(0%,0%,0%);fill-opacity:0.96;" d="M 267.476562 333.65625 L 270.257812 342.214844 L 261.257812 342.214844 "/>
<path style=" stroke:none;fill-rule:nonzero;fill:rgb(100%,100%,100%);fill-opacity:0.96;" d="M 252.703125 328.371094 C 252.703125 330.371094 249.703125 330.371094 249.703125 328.371094 C 249.703125 326.371094 252.703125 326.371094 252.703125 328.371094 "/>
<path style=" stroke:none;fill-rule:nonzero;fill:rgb(100%,100%,100%);fill-opacity:0.96;" d="M 224.480469 337.621094 C 224.480469 339.957031 220.980469 339.957031 220.980469 337.621094 C 220.980469 335.289062 224.480469 335.289062 224.480469 337.621094 "/>
<path style="fill:none;stroke-width:2;stroke-linecap:butt;stroke-linejoin:miter;stroke:rgb(0%,0%,0%);stroke-opacity:0.96;stroke-miterlimit:10;" d="M 249.066406 329.066406 L 231.792969 334.679688 "/>
<path style=" stroke:none;fill-rule:nonzero;fill:rgb(0%,0%,0%);fill-opacity:0.96;" d="M 233.425781 339.710938 L 224.867188 336.929688 L 230.15625 329.648438 "/>
<path style=" stroke:none;fill-rule:nonzero;fill:rgb(100%,100%,100%);fill-opacity:0.96;" d="M 335.105469 358.304688 C 335.105469 360.304688 332.105469 360.304688 332.105469 358.304688 C 332.105469 356.304688 335.105469 356.304688 335.105469 358.304688 "/>
<path style=" stroke:none;fill-rule:nonzero;fill:rgb(100%,100%,100%);fill-opacity:0.96;" d="M 302.023438 334.089844 C 302.023438 336.421875 298.523438 336.421875 298.523438 334.089844 C 298.523438 331.753906 302.023438 331.753906 302.023438 334.089844 "/>
<path style="fill:none;stroke-width:2;stroke-linecap:butt;stroke-linejoin:miter;stroke:rgb(0%,0%,0%);stroke-opacity:0.96;stroke-miterlimit:10;" d="M 331.105469 356.488281 L 308.664062 340.183594 "/>
<path style=" stroke:none;fill-rule:nonzero;fill:rgb(0%,0%,0%);fill-opacity:0.96;" d="M 305.554688 344.464844 L 302.773438 335.90625 L 311.773438 335.90625 "/>
<path style=" stroke:none;fill-rule:nonzero;fill:rgb(100%,100%,100%);fill-opacity:0.96;" d="M 335.105469 358.304688 C 335.105469 360.304688 332.105469 360.304688 332.105469 358.304688 C 332.105469 356.304688 335.105469 356.304688 335.105469 358.304688 "/>
<path style=" stroke:none;fill-rule:nonzero;fill:rgb(100%,100%,100%);fill-opacity:0.96;" d="M 335.355469 376.808594 C 335.355469 379.140625 331.855469 379.140625 331.855469 376.808594 C 331.855469 374.472656 335.355469 374.472656 335.355469 376.808594 "/>
<path style="fill:none;stroke-width:2;stroke-linecap:butt;stroke-linejoin:miter;stroke:rgb(0%,0%,0%);stroke-opacity:0.96;stroke-miterlimit:10;" d="M 333.605469 359.695312 L 333.605469 368.140625 "/>
<path style=" stroke:none;fill-rule:nonzero;fill:rgb(0%,0%,0%);fill-opacity:0.96;" d="M 338.898438 368.140625 L 333.605469 375.421875 L 328.316406 368.140625 "/>
<path style=" stroke:none;fill-rule:nonzero;fill:rgb(100%,100%,100%);fill-opacity:0.96;" d="M 301.773438 334.089844 C 301.773438 336.089844 298.773438 336.089844 298.773438 334.089844 C 298.773438 332.089844 301.773438 332.089844 301.773438 334.089844 "/>
<path style=" stroke:none;fill-rule:nonzero;fill:rgb(100%,100%,100%);fill-opacity:0.96;" d="M 273.554688 343.339844 C 273.554688 345.671875 270.054688 345.671875 270.054688 343.339844 C 270.054688 341.003906 273.554688 341.003906 273.554688 343.339844 "/>
<path style="fill:none;stroke-width:2;stroke-linecap:butt;stroke-linejoin:miter;stroke:rgb(0%,0%,0%);stroke-opacity:0.96;stroke-miterlimit:10;" d="M 298.136719 334.78125 L 280.863281 340.394531 "/>
<path style=" stroke:none;fill-rule:nonzero;fill:rgb(0%,0%,0%);fill-opacity:0.96;" d="M 282.5 345.425781 L 273.9375 342.644531 L 279.230469 335.363281 "/>
<path style=" stroke:none;fill-rule:nonzero;fill:rgb(100%,100%,100%);fill-opacity:0.96;" d="M 273.304688 343.339844 C 273.304688 345.339844 270.304688 345.339844 270.304688 343.339844 C 270.304688 341.339844 273.304688 341.339844 273.304688 343.339844 "/>
<path style=" stroke:none;fill-rule:nonzero;fill:rgb(100%,100%,100%);fill-opacity:0.96;" d="M 273.554688 391.773438 C 273.554688 394.109375 270.054688 394.109375 270.054688 391.773438 C 270.054688 389.441406 273.554688 389.441406 273.554688 391.773438 "/>
<path style="fill:none;stroke-width:2;stroke-linecap:butt;stroke-linejoin:miter;stroke:rgb(0%,0%,0%);stroke-opacity:0.96;stroke-miterlimit:10;" d="M 271.804688 346.972656 L 271.804688 380.859375 "/>
<path style=" stroke:none;fill-rule:nonzero;fill:rgb(0%,0%,0%);fill-opacity:0.96;" d="M 277.09375 380.859375 L 271.804688 388.140625 L 266.511719 380.859375 "/>
<path style=" stroke:none;fill-rule:nonzero;fill:rgb(100%,100%,100%);fill-opacity:0.96;" d="M 335.105469 376.808594 C 335.105469 378.808594 332.105469 378.808594 332.105469 376.808594 C 332.105469 374.808594 335.105469 374.808594 335.105469 376.808594 "/>
<path style=" stroke:none;fill-rule:nonzero;fill:rgb(100%,100%,100%);fill-opacity:0.96;" d="M 302.023438 401.027344 C 302.023438 403.359375 298.523438 403.359375 298.523438 401.027344 C 298.523438 398.691406 302.023438 398.691406 302.023438 401.027344 "/>
<path style="fill:none;stroke-width:2;stroke-linecap:butt;stroke-linejoin:miter;stroke:rgb(0%,0%,0%);stroke-opacity:0.96;stroke-miterlimit:10;" d="M 331.105469 378.625 L 308.664062 394.929688 "/>
<path style=" stroke:none;fill-rule:nonzero;fill:rgb(0%,0%,0%);fill-opacity:0.96;" d="M 311.773438 399.210938 L 302.773438 399.210938 L 305.554688 390.648438 "/>
<path style=" stroke:none;fill-rule:nonzero;fill:rgb(100%,100%,100%);fill-opacity:0.96;" d="M 301.773438 401.027344 C 301.773438 403.027344 298.773438 403.027344 298.773438 401.027344 C 298.773438 399.027344 301.773438 399.027344 301.773438 401.027344 "/>
<path style=" stroke:none;fill-rule:nonzero;fill:rgb(100%,100%,100%);fill-opacity:0.96;" d="M 273.554688 391.773438 C 273.554688 394.109375 270.054688 394.109375 270.054688 391.773438 C 270.054688 389.441406 273.554688 389.441406 273.554688 391.773438 "/>
<path style="fill:none;stroke-width:2;stroke-linecap:butt;stroke-linejoin:miter;stroke:rgb(0%,0%,0%);stroke-opacity:0.96;stroke-miterlimit:10;" d="M 298.136719 400.332031 L 280.863281 394.71875 "/>
<path style=" stroke:none;fill-rule:nonzero;fill:rgb(0%,0%,0%);fill-opacity:0.96;" d="M 279.230469 399.75 L 273.9375 392.46875 L 282.5 389.6875 "/>
<path style=" stroke:none;fill-rule:nonzero;fill:rgb(100%,100%,100%);fill-opacity:0.96;" d="M 273.304688 391.773438 C 273.304688 393.773438 270.304688 393.773438 270.304688 391.773438 C 270.304688 389.773438 273.304688 389.773438 273.304688 391.773438 "/>
<path style=" stroke:none;fill-rule:nonzero;fill:rgb(100%,100%,100%);fill-opacity:0.96;" d="M 245.082031 401.027344 C 245.082031 403.359375 241.582031 403.359375 241.582031 401.027344 C 241.582031 398.691406 245.082031 398.691406 245.082031 401.027344 "/>
<path style="fill:none;stroke-width:2;stroke-linecap:butt;stroke-linejoin:miter;stroke:rgb(0%,0%,0%);stroke-opacity:0.96;stroke-miterlimit:10;" d="M 269.667969 392.46875 L 252.394531 398.082031 "/>
<path style=" stroke:none;fill-rule:nonzero;fill:rgb(0%,0%,0%);fill-opacity:0.96;" d="M 254.027344 403.113281 L 245.46875 400.332031 L 250.757812 393.050781 "/>
<path style=" stroke:none;fill-rule:nonzero;fill:rgb(100%,100%,100%);fill-opacity:0.96;" d="M 224.230469 337.621094 C 224.230469 339.621094 221.230469 339.621094 221.230469 337.621094 C 221.230469 335.621094 224.230469 335.621094 224.230469 337.621094 "/>
<path style=" stroke:none;fill-rule:nonzero;fill:rgb(100%,100%,100%);fill-opacity:0.96;" d="M 216.613281 361.839844 C 216.613281 364.171875 213.113281 364.171875 213.113281 361.839844 C 213.113281 359.507812 216.613281 359.507812 216.613281 361.839844 "/>
<path style="fill:none;stroke-width:2;stroke-linecap:butt;stroke-linejoin:miter;stroke:rgb(0%,0%,0%);stroke-opacity:0.96;stroke-miterlimit:10;" d="M 222.140625 339.4375 L 217.703125 353.097656 "/>
<path style=" stroke:none;fill-rule:nonzero;fill:rgb(0%,0%,0%);fill-opacity:0.96;" d="M 222.734375 354.734375 L 215.453125 360.023438 L 212.671875 351.464844 "/>
<path style=" stroke:none;fill-rule:nonzero;fill:rgb(100%,100%,100%);fill-opacity:0.96;" d="M 175.160156 410.277344 C 175.160156 412.277344 172.160156 412.277344 172.160156 410.277344 C 172.160156 408.277344 175.160156 408.277344 175.160156 410.277344 "/>
<path style=" stroke:none;fill-rule:nonzero;fill:rgb(100%,100%,100%);fill-opacity:0.96;" d="M 188.144531 371.089844 C 188.144531 373.421875 184.644531 373.421875 184.644531 371.089844 C 184.644531 368.757812 188.144531 368.757812 188.144531 371.089844 "/>
<path style="fill:none;stroke-width:2;stroke-linecap:butt;stroke-linejoin:miter;stroke:rgb(0%,0%,0%);stroke-opacity:0.96;stroke-miterlimit:10;" d="M 174.617188 407.335938 L 183.1875 380.953125 "/>
<path style=" stroke:none;fill-rule:nonzero;fill:rgb(0%,0%,0%);fill-opacity:0.96;" d="M 178.15625 379.320312 L 185.4375 374.03125 L 188.21875 382.589844 "/>
<path style=" stroke:none;fill-rule:nonzero;fill:rgb(100%,100%,100%);fill-opacity:0.96;" d="M 175.160156 410.277344 C 175.160156 412.277344 172.160156 412.277344 172.160156 410.277344 C 172.160156 408.277344 175.160156 408.277344 175.160156 410.277344 "/>
<path style=" stroke:none;fill-rule:nonzero;fill:rgb(100%,100%,100%);fill-opacity:0.96;" d="M 186.285156 425.242188 C 186.285156 427.578125 182.785156 427.578125 182.785156 425.242188 C 182.785156 422.910156 186.285156 422.910156 186.285156 425.242188 "/>
<path style="fill:none;stroke-width:2;stroke-linecap:butt;stroke-linejoin:miter;stroke:rgb(0%,0%,0%);stroke-opacity:0.96;stroke-miterlimit:10;" d="M 174.476562 411.398438 L 179.441406 418.230469 "/>
<path style=" stroke:none;fill-rule:nonzero;fill:rgb(0%,0%,0%);fill-opacity:0.96;" d="M 183.71875 415.121094 L 183.71875 424.121094 L 175.160156 421.339844 "/>
<path style=" stroke:none;fill-rule:nonzero;fill:rgb(100%,100%,100%);fill-opacity:0.96;" d="M 175.160156 410.277344 C 175.160156 412.277344 172.160156 412.277344 172.160156 410.277344 C 172.160156 408.277344 175.160156 408.277344 175.160156 410.277344 "/>
<path style=" stroke:none;fill-rule:nonzero;fill:rgb(100%,100%,100%);fill-opacity:0.96;" d="M 146.941406 401.027344 C 146.941406 403.359375 143.441406 403.359375 143.441406 401.027344 C 143.441406 398.691406 146.941406 398.691406 146.941406 401.027344 "/>
<path style="fill:none;stroke-width:2;stroke-linecap:butt;stroke-linejoin:miter;stroke:rgb(0%,0%,0%);stroke-opacity:0.96;stroke-miterlimit:10;" d="M 171.527344 409.582031 L 154.25 403.96875 "/>
<path style=" stroke:none;fill-rule:nonzero;fill:rgb(0%,0%,0%);fill-opacity:0.96;" d="M 152.617188 409 L 147.328125 401.71875 L 155.886719 398.9375 "/>
<path style=" stroke:none;fill-rule:nonzero;fill:rgb(100%,100%,100%);fill-opacity:0.96;" d="M 187.894531 371.089844 C 187.894531 373.089844 184.894531 373.089844 184.894531 371.089844 C 184.894531 369.089844 187.894531 369.089844 187.894531 371.089844 "/>
<path style=" stroke:none;fill-rule:nonzero;fill:rgb(100%,100%,100%);fill-opacity:0.96;" d="M 216.613281 361.839844 C 216.613281 364.171875 213.113281 364.171875 213.113281 361.839844 C 213.113281 359.507812 216.613281 359.507812 216.613281 361.839844 "/>
<path style="fill:none;stroke-width:2;stroke-linecap:butt;stroke-linejoin:miter;stroke:rgb(0%,0%,0%);stroke-opacity:0.96;stroke-miterlimit:10;" d="M 188.527344 370.398438 L 205.804688 364.785156 "/>
<path style=" stroke:none;fill-rule:nonzero;fill:rgb(0%,0%,0%);fill-opacity:0.96;" d="M 204.167969 359.753906 L 212.726562 362.535156 L 207.4375 369.816406 "/>
<path style=" stroke:none;fill-rule:nonzero;fill:rgb(100%,100%,100%);fill-opacity:0.96;" d="M 187.894531 371.089844 C 187.894531 373.089844 184.894531 373.089844 184.894531 371.089844 C 184.894531 369.089844 187.894531 369.089844 187.894531 371.089844 "/>
<path style=" stroke:none;fill-rule:nonzero;fill:rgb(100%,100%,100%);fill-opacity:0.96;" d="M 159.671875 361.839844 C 159.671875 364.171875 156.171875 364.171875 156.171875 361.839844 C 156.171875 359.507812 159.671875 359.507812 159.671875 361.839844 "/>
<path style="fill:none;stroke-width:2;stroke-linecap:butt;stroke-linejoin:miter;stroke:rgb(0%,0%,0%);stroke-opacity:0.96;stroke-miterlimit:10;" d="M 184.257812 370.398438 L 166.984375 364.785156 "/>
<path style=" stroke:none;fill-rule:nonzero;fill:rgb(0%,0%,0%);fill-opacity:0.96;" d="M 165.347656 369.816406 L 160.058594 362.535156 L 168.617188 359.753906 "/>
<path style=" stroke:none;fill-rule:nonzero;fill:rgb(100%,100%,100%);fill-opacity:0.96;" d="M 216.363281 361.839844 C 216.363281 363.839844 213.363281 363.839844 213.363281 361.839844 C 213.363281 359.839844 216.363281 359.839844 216.363281 361.839844 "/>
<path style=" stroke:none;fill-rule:nonzero;fill:rgb(100%,100%,100%);fill-opacity:0.96;" d="M 245.082031 401.027344 C 245.082031 403.359375 241.582031 403.359375 241.582031 401.027344 C 241.582031 398.691406 245.082031 398.691406 245.082031 401.027344 "/>
<path style="fill:none;stroke-width:2;stroke-linecap:butt;stroke-linejoin:miter;stroke:rgb(0%,0%,0%);stroke-opacity:0.96;stroke-miterlimit:10;" d="M 217 364.777344 L 236.917969 392.195312 "/>
<path style=" stroke:none;fill-rule:nonzero;fill:rgb(0%,0%,0%);fill-opacity:0.96;" d="M 241.199219 389.085938 L 241.199219 398.085938 L 232.636719 395.304688 "/>
<path style=" stroke:none;fill-rule:nonzero;fill:rgb(100%,100%,100%);fill-opacity:0.96;" d="M 186.035156 425.242188 C 186.035156 427.242188 183.035156 427.242188 183.035156 425.242188 C 183.035156 423.242188 186.035156 423.242188 186.035156 425.242188 "/>
<path style=" stroke:none;fill-rule:nonzero;fill:rgb(100%,100%,100%);fill-opacity:0.96;" d="M 227.488281 425.242188 C 227.488281 427.578125 223.988281 427.578125 223.988281 425.242188 C 223.988281 422.910156 227.488281 422.910156 227.488281 425.242188 "/>
<path style="fill:none;stroke-width:2;stroke-linecap:butt;stroke-linejoin:miter;stroke:rgb(0%,0%,0%);stroke-opacity:0.96;stroke-miterlimit:10;" d="M 187.625 425.242188 L 215.367188 425.242188 "/>
<path style=" stroke:none;fill-rule:nonzero;fill:rgb(0%,0%,0%);fill-opacity:0.96;" d="M 215.367188 419.953125 L 222.648438 425.242188 L 215.367188 430.535156 "/>
<path style=" stroke:none;fill-rule:nonzero;fill:rgb(100%,100%,100%);fill-opacity:0.96;" d="M 227.238281 425.242188 C 227.238281 427.242188 224.238281 427.242188 224.238281 425.242188 C 224.238281 423.242188 227.238281 423.242188 227.238281 425.242188 "/>
<path style=" stroke:none;fill-rule:nonzero;fill:rgb(100%,100%,100%);fill-opacity:0.96;" d="M 245.082031 401.027344 C 245.082031 403.359375 241.582031 403.359375 241.582031 401.027344 C 241.582031 398.691406 245.082031 398.691406 245.082031 401.027344 "/>
<path style="fill:none;stroke-width:2;stroke-linecap:butt;stroke-linejoin:miter;stroke:rgb(0%,0%,0%);stroke-opacity:0.96;stroke-miterlimit:10;" d="M 227.058594 423.425781 L 237.734375 408.734375 "/>
<path style=" stroke:none;fill-rule:nonzero;fill:rgb(0%,0%,0%);fill-opacity:0.96;" d="M 233.453125 405.625 L 242.015625 402.84375 L 242.015625 411.84375 "/>
<path style=" stroke:none;fill-rule:nonzero;fill:rgb(100%,100%,100%);fill-opacity:0.96;" d="M 149.695312 313.402344 C 149.695312 315.402344 146.695312 315.402344 146.695312 313.402344 C 146.695312 311.402344 149.695312 311.402344 149.695312 313.402344 "/>
<path style=" stroke:none;fill-rule:nonzero;fill:rgb(100%,100%,100%);fill-opacity:0.96;" d="M 142.078125 337.621094 C 142.078125 339.957031 138.578125 339.957031 138.578125 337.621094 C 138.578125 335.289062 142.078125 335.289062 142.078125 337.621094 "/>
<path style="fill:none;stroke-width:2;stroke-linecap:butt;stroke-linejoin:miter;stroke:rgb(0%,0%,0%);stroke-opacity:0.96;stroke-miterlimit:10;" d="M 147.605469 315.21875 L 143.167969 328.878906 "/>
<path style=" stroke:none;fill-rule:nonzero;fill:rgb(0%,0%,0%);fill-opacity:0.96;" d="M 148.199219 330.515625 L 140.917969 335.804688 L 138.136719 327.246094 "/>
<path style=" stroke:none;fill-rule:nonzero;fill:rgb(100%,100%,100%);fill-opacity:0.96;" d="M 149.695312 313.402344 C 149.695312 315.402344 146.695312 315.402344 146.695312 313.402344 C 146.695312 311.402344 149.695312 311.402344 149.695312 313.402344 "/>
<path style=" stroke:none;fill-rule:nonzero;fill:rgb(100%,100%,100%);fill-opacity:0.96;" d="M 132.351562 289.1875 C 132.351562 291.519531 128.851562 291.519531 128.851562 289.1875 C 128.851562 286.851562 132.351562 286.851562 132.351562 289.1875 "/>
<path style="fill:none;stroke-width:2;stroke-linecap:butt;stroke-linejoin:miter;stroke:rgb(0%,0%,0%);stroke-opacity:0.96;stroke-miterlimit:10;" d="M 146.875 311.585938 L 136.199219 296.894531 "/>
<path style=" stroke:none;fill-rule:nonzero;fill:rgb(0%,0%,0%);fill-opacity:0.96;" d="M 131.921875 300.003906 L 131.921875 291.003906 L 140.480469 293.78125 "/>
<path style=" stroke:none;fill-rule:nonzero;fill:rgb(100%,100%,100%);fill-opacity:0.96;" d="M 146.691406 401.027344 C 146.691406 403.027344 143.691406 403.027344 143.691406 401.027344 C 143.691406 399.027344 146.691406 399.027344 146.691406 401.027344 "/>
<path style=" stroke:none;fill-rule:nonzero;fill:rgb(100%,100%,100%);fill-opacity:0.96;" d="M 159.671875 361.839844 C 159.671875 364.171875 156.171875 364.171875 156.171875 361.839844 C 156.171875 359.507812 159.671875 359.507812 159.671875 361.839844 "/>
<path style="fill:none;stroke-width:2;stroke-linecap:butt;stroke-linejoin:miter;stroke:rgb(0%,0%,0%);stroke-opacity:0.96;stroke-miterlimit:10;" d="M 146.144531 398.085938 L 154.71875 371.703125 "/>
<path style=" stroke:none;fill-rule:nonzero;fill:rgb(0%,0%,0%);fill-opacity:0.96;" d="M 149.6875 370.070312 L 156.96875 364.777344 L 159.75 373.339844 "/>
<path style=" stroke:none;fill-rule:nonzero;fill:rgb(100%,100%,100%);fill-opacity:0.96;" d="M 146.691406 401.027344 C 146.691406 403.027344 143.691406 403.027344 143.691406 401.027344 C 143.691406 399.027344 146.691406 399.027344 146.691406 401.027344 "/>
<path style=" stroke:none;fill-rule:nonzero;fill:rgb(100%,100%,100%);fill-opacity:0.96;" d="M 129.34375 406.742188 C 129.34375 409.074219 125.84375 409.074219 125.84375 406.742188 C 125.84375 404.410156 129.34375 404.410156 129.34375 406.742188 "/>
<path style="fill:none;stroke-width:2;stroke-linecap:butt;stroke-linejoin:miter;stroke:rgb(0%,0%,0%);stroke-opacity:0.96;stroke-miterlimit:10;" d="M 143.871094 401.453125 L 135.839844 404.0625 "/>
<path style=" stroke:none;fill-rule:nonzero;fill:rgb(0%,0%,0%);fill-opacity:0.96;" d="M 137.476562 409.09375 L 128.914062 406.3125 L 134.207031 399.03125 "/>
<path style=" stroke:none;fill-rule:nonzero;fill:rgb(100%,100%,100%);fill-opacity:0.96;" d="M 159.421875 361.839844 C 159.421875 363.839844 156.421875 363.839844 156.421875 361.839844 C 156.421875 359.839844 159.421875 359.839844 159.421875 361.839844 "/>
<path style=" stroke:none;fill-rule:nonzero;fill:rgb(100%,100%,100%);fill-opacity:0.96;" d="M 142.078125 337.621094 C 142.078125 339.957031 138.578125 339.957031 138.578125 337.621094 C 138.578125 335.289062 142.078125 335.289062 142.078125 337.621094 "/>
<path style="fill:none;stroke-width:2;stroke-linecap:butt;stroke-linejoin:miter;stroke:rgb(0%,0%,0%);stroke-opacity:0.96;stroke-miterlimit:10;" d="M 156.601562 360.023438 L 145.925781 345.328125 "/>
<path style=" stroke:none;fill-rule:nonzero;fill:rgb(0%,0%,0%);fill-opacity:0.96;" d="M 141.648438 348.4375 L 141.648438 339.4375 L 150.207031 342.21875 "/>
<path style=" stroke:none;fill-rule:nonzero;fill:rgb(100%,100%,100%);fill-opacity:0.96;" d="M 141.828125 337.621094 C 141.828125 339.621094 138.828125 339.621094 138.828125 337.621094 C 138.828125 335.621094 141.828125 335.621094 141.828125 337.621094 "/>
<path style=" stroke:none;fill-rule:nonzero;fill:rgb(100%,100%,100%);fill-opacity:0.96;" d="M 96.011719 352.589844 C 96.011719 354.921875 92.511719 354.921875 92.511719 352.589844 C 92.511719 350.257812 96.011719 350.257812 96.011719 352.589844 "/>
<path style="fill:none;stroke-width:2;stroke-linecap:butt;stroke-linejoin:miter;stroke:rgb(0%,0%,0%);stroke-opacity:0.96;stroke-miterlimit:10;" d="M 136.871094 338.746094 L 104.640625 349.21875 "/>
<path style=" stroke:none;fill-rule:nonzero;fill:rgb(0%,0%,0%);fill-opacity:0.96;" d="M 106.277344 354.246094 L 97.71875 351.46875 L 103.007812 344.1875 "/>
<path style=" stroke:none;fill-rule:nonzero;fill:rgb(100%,100%,100%);fill-opacity:0.96;" d="M 129.09375 406.742188 C 129.09375 408.742188 126.09375 408.742188 126.09375 406.742188 C 126.09375 404.742188 129.09375 404.742188 129.09375 406.742188 "/>
<path style=" stroke:none;fill-rule:nonzero;fill:rgb(100%,100%,100%);fill-opacity:0.96;" d="M 96.011719 382.523438 C 96.011719 384.859375 92.511719 384.859375 92.511719 382.523438 C 92.511719 380.191406 96.011719 380.191406 96.011719 382.523438 "/>
<path style="fill:none;stroke-width:2;stroke-linecap:butt;stroke-linejoin:miter;stroke:rgb(0%,0%,0%);stroke-opacity:0.96;stroke-miterlimit:10;" d="M 125.09375 404.925781 L 102.652344 388.621094 "/>
<path style=" stroke:none;fill-rule:nonzero;fill:rgb(0%,0%,0%);fill-opacity:0.96;" d="M 99.542969 392.902344 L 96.761719 384.339844 L 105.761719 384.339844 "/>
<path style=" stroke:none;fill-rule:nonzero;fill:rgb(100%,100%,100%);fill-opacity:0.96;" d="M 95.761719 382.523438 C 95.761719 384.523438 92.761719 384.523438 92.761719 382.523438 C 92.761719 380.523438 95.761719 380.523438 95.761719 382.523438 "/>
<path style=" stroke:none;fill-rule:nonzero;fill:rgb(100%,100%,100%);fill-opacity:0.96;" d="M 96.011719 352.589844 C 96.011719 354.921875 92.511719 354.921875 92.511719 352.589844 C 92.511719 350.257812 96.011719 350.257812 96.011719 352.589844 "/>
<path style="fill:none;stroke-width:2;stroke-linecap:butt;stroke-linejoin:miter;stroke:rgb(0%,0%,0%);stroke-opacity:0.96;stroke-miterlimit:10;" d="M 94.261719 380.28125 L 94.261719 362.117188 "/>
<path style=" stroke:none;fill-rule:nonzero;fill:rgb(0%,0%,0%);fill-opacity:0.96;" d="M 88.972656 362.117188 L 94.261719 354.835938 L 99.550781 362.117188 "/>
<path style=" stroke:none;fill-rule:nonzero;fill:rgb(100%,100%,100%);fill-opacity:0.96;" d="M 95.761719 352.589844 C 95.761719 354.589844 92.761719 354.589844 92.761719 352.589844 C 92.761719 350.589844 95.761719 350.589844 95.761719 352.589844 "/>
<path style=" stroke:none;fill-rule:nonzero;fill:rgb(100%,100%,100%);fill-opacity:0.96;" d="M 78.417969 328.371094 C 78.417969 330.703125 74.917969 330.703125 74.917969 328.371094 C 74.917969 326.039062 78.417969 326.039062 78.417969 328.371094 "/>
<path style="fill:none;stroke-width:2;stroke-linecap:butt;stroke-linejoin:miter;stroke:rgb(0%,0%,0%);stroke-opacity:0.96;stroke-miterlimit:10;" d="M 92.941406 350.773438 L 82.265625 336.078125 "/>
<path style=" stroke:none;fill-rule:nonzero;fill:rgb(0%,0%,0%);fill-opacity:0.96;" d="M 77.984375 339.1875 L 77.984375 330.1875 L 86.546875 332.96875 "/>
<path style=" stroke:none;fill-rule:nonzero;fill:rgb(100%,100%,100%);fill-opacity:0.96;" d="M 132.101562 289.1875 C 132.101562 291.1875 129.101562 291.1875 129.101562 289.1875 C 129.101562 287.1875 132.101562 287.1875 132.101562 289.1875 "/>
<path style=" stroke:none;fill-rule:nonzero;fill:rgb(100%,100%,100%);fill-opacity:0.96;" d="M 106.886719 289.1875 C 106.886719 291.519531 103.386719 291.519531 103.386719 289.1875 C 103.386719 286.851562 106.886719 286.851562 106.886719 289.1875 "/>
<path style="fill:none;stroke-width:2;stroke-linecap:butt;stroke-linejoin:miter;stroke:rgb(0%,0%,0%);stroke-opacity:0.96;stroke-miterlimit:10;" d="M 128.691406 289.1875 L 114.328125 289.1875 "/>
<path style=" stroke:none;fill-rule:nonzero;fill:rgb(0%,0%,0%);fill-opacity:0.96;" d="M 114.328125 294.476562 L 107.046875 289.1875 L 114.328125 283.894531 "/>
<path style=" stroke:none;fill-rule:nonzero;fill:rgb(100%,100%,100%);fill-opacity:0.96;" d="M 47.839844 264.96875 C 47.839844 266.96875 44.839844 266.96875 44.839844 264.96875 C 44.839844 262.96875 47.839844 262.96875 47.839844 264.96875 "/>
<path style=" stroke:none;fill-rule:nonzero;fill:rgb(100%,100%,100%);fill-opacity:0.96;" d="M 89.292969 264.96875 C 89.292969 267.300781 85.792969 267.300781 85.792969 264.96875 C 85.792969 262.632812 89.292969 262.632812 89.292969 264.96875 "/>
<path style="fill:none;stroke-width:2;stroke-linecap:butt;stroke-linejoin:miter;stroke:rgb(0%,0%,0%);stroke-opacity:0.96;stroke-miterlimit:10;" d="M 49.429688 264.96875 L 77.171875 264.96875 "/>
<path style=" stroke:none;fill-rule:nonzero;fill:rgb(0%,0%,0%);fill-opacity:0.96;" d="M 77.171875 259.675781 L 84.449219 264.96875 L 77.171875 270.257812 "/>
<path style=" stroke:none;fill-rule:nonzero;fill:rgb(100%,100%,100%);fill-opacity:0.96;" d="M 47.839844 264.96875 C 47.839844 266.96875 44.839844 266.96875 44.839844 264.96875 C 44.839844 262.96875 47.839844 262.96875 47.839844 264.96875 "/>
<path style=" stroke:none;fill-rule:nonzero;fill:rgb(100%,100%,100%);fill-opacity:0.96;" d="M 37.214844 279.933594 C 37.214844 282.269531 33.714844 282.269531 33.714844 279.933594 C 33.714844 277.601562 37.214844 277.601562 37.214844 279.933594 "/>
<path style="fill:none;stroke-width:2;stroke-linecap:butt;stroke-linejoin:miter;stroke:rgb(0%,0%,0%);stroke-opacity:0.96;stroke-miterlimit:10;" d="M 45.523438 266.089844 L 40.558594 272.921875 "/>
<path style=" stroke:none;fill-rule:nonzero;fill:rgb(0%,0%,0%);fill-opacity:0.96;" d="M 44.839844 276.03125 L 36.28125 278.8125 L 36.28125 269.8125 "/>
<path style=" stroke:none;fill-rule:nonzero;fill:rgb(100%,100%,100%);fill-opacity:0.96;" d="M 47.839844 264.96875 C 47.839844 266.96875 44.839844 266.96875 44.839844 264.96875 C 44.839844 262.96875 47.839844 262.96875 47.839844 264.96875 "/>
<path style=" stroke:none;fill-rule:nonzero;fill:rgb(100%,100%,100%);fill-opacity:0.96;" d="M 48.089844 235.03125 C 48.089844 237.367188 44.589844 237.367188 44.589844 235.03125 C 44.589844 232.699219 48.089844 232.699219 48.089844 235.03125 "/>
<path style="fill:none;stroke-width:2;stroke-linecap:butt;stroke-linejoin:miter;stroke:rgb(0%,0%,0%);stroke-opacity:0.96;stroke-miterlimit:10;" d="M 46.339844 262.722656 L 46.339844 244.558594 "/>
<path style=" stroke:none;fill-rule:nonzero;fill:rgb(0%,0%,0%);fill-opacity:0.96;" d="M 41.050781 244.558594 L 46.339844 237.277344 L 51.628906 244.558594 "/>
<path style=" stroke:none;fill-rule:nonzero;fill:rgb(100%,100%,100%);fill-opacity:0.96;" d="M 89.042969 264.96875 C 89.042969 266.96875 86.042969 266.96875 86.042969 264.96875 C 86.042969 262.96875 89.042969 262.96875 89.042969 264.96875 "/>
<path style=" stroke:none;fill-rule:nonzero;fill:rgb(100%,100%,100%);fill-opacity:0.96;" d="M 106.886719 289.1875 C 106.886719 291.519531 103.386719 291.519531 103.386719 289.1875 C 103.386719 286.851562 106.886719 286.851562 106.886719 289.1875 "/>
<path style="fill:none;stroke-width:2;stroke-linecap:butt;stroke-linejoin:miter;stroke:rgb(0%,0%,0%);stroke-opacity:0.96;stroke-miterlimit:10;" d="M 88.859375 266.785156 L 99.539062 281.480469 "/>
<path style=" stroke:none;fill-rule:nonzero;fill:rgb(0%,0%,0%);fill-opacity:0.96;" d="M 103.816406 278.371094 L 103.816406 287.371094 L 95.257812 284.589844 "/>
<path style=" stroke:none;fill-rule:nonzero;fill:rgb(100%,100%,100%);fill-opacity:0.96;" d="M 89.042969 264.96875 C 89.042969 266.96875 86.042969 266.96875 86.042969 264.96875 C 86.042969 262.96875 89.042969 262.96875 89.042969 264.96875 "/>
<path style=" stroke:none;fill-rule:nonzero;fill:rgb(100%,100%,100%);fill-opacity:0.96;" d="M 89.292969 235.03125 C 89.292969 237.367188 85.792969 237.367188 85.792969 235.03125 C 85.792969 232.699219 89.292969 232.699219 89.292969 235.03125 "/>
<path style="fill:none;stroke-width:2;stroke-linecap:butt;stroke-linejoin:miter;stroke:rgb(0%,0%,0%);stroke-opacity:0.96;stroke-miterlimit:10;" d="M 87.542969 262.722656 L 87.542969 244.558594 "/>
<path style=" stroke:none;fill-rule:nonzero;fill:rgb(0%,0%,0%);fill-opacity:0.96;" d="M 82.25 244.558594 L 87.542969 237.277344 L 92.832031 244.558594 "/>
<path style=" stroke:none;fill-rule:nonzero;fill:rgb(100%,100%,100%);fill-opacity:0.96;" d="M 106.636719 289.1875 C 106.636719 291.1875 103.636719 291.1875 103.636719 289.1875 C 103.636719 287.1875 106.636719 287.1875 106.636719 289.1875 "/>
<path style=" stroke:none;fill-rule:nonzero;fill:rgb(100%,100%,100%);fill-opacity:0.96;" d="M 78.417969 328.371094 C 78.417969 330.703125 74.917969 330.703125 74.917969 328.371094 C 74.917969 326.039062 78.417969 326.039062 78.417969 328.371094 "/>
<path style="fill:none;stroke-width:2;stroke-linecap:butt;stroke-linejoin:miter;stroke:rgb(0%,0%,0%);stroke-opacity:0.96;stroke-miterlimit:10;" d="M 103 292.125 L 83.082031 319.542969 "/>
<path style=" stroke:none;fill-rule:nonzero;fill:rgb(0%,0%,0%);fill-opacity:0.96;" d="M 87.363281 322.652344 L 78.800781 325.433594 L 78.800781 316.433594 "/>
<path style=" stroke:none;fill-rule:nonzero;fill:rgb(100%,100%,100%);fill-opacity:0.96;" d="M 36.964844 279.933594 C 36.964844 281.933594 33.964844 281.933594 33.964844 279.933594 C 33.964844 277.933594 36.964844 277.933594 36.964844 279.933594 "/>
<path style=" stroke:none;fill-rule:nonzero;fill:rgb(100%,100%,100%);fill-opacity:0.96;" d="M 49.945312 319.121094 C 49.945312 321.453125 46.445312 321.453125 46.445312 319.121094 C 46.445312 316.789062 49.945312 316.789062 49.945312 319.121094 "/>
<path style="fill:none;stroke-width:2;stroke-linecap:butt;stroke-linejoin:miter;stroke:rgb(0%,0%,0%);stroke-opacity:0.96;stroke-miterlimit:10;" d="M 36.417969 282.875 L 44.992188 309.257812 "/>
<path style=" stroke:none;fill-rule:nonzero;fill:rgb(0%,0%,0%);fill-opacity:0.96;" d="M 50.023438 307.621094 L 47.242188 316.183594 L 39.960938 310.890625 "/>
<path style=" stroke:none;fill-rule:nonzero;fill:rgb(100%,100%,100%);fill-opacity:0.96;" d="M 49.695312 319.121094 C 49.695312 321.121094 46.695312 321.121094 46.695312 319.121094 C 46.695312 317.121094 49.695312 317.121094 49.695312 319.121094 "/>
<path style=" stroke:none;fill-rule:nonzero;fill:rgb(100%,100%,100%);fill-opacity:0.96;" d="M 78.417969 328.371094 C 78.417969 330.703125 74.917969 330.703125 74.917969 328.371094 C 74.917969 326.039062 78.417969 326.039062 78.417969 328.371094 "/>
<path style="fill:none;stroke-width:2;stroke-linecap:butt;stroke-linejoin:miter;stroke:rgb(0%,0%,0%);stroke-opacity:0.96;stroke-miterlimit:10;" d="M 50.332031 319.816406 L 67.605469 325.425781 "/>
<path style=" stroke:none;fill-rule:nonzero;fill:rgb(0%,0%,0%);fill-opacity:0.96;" d="M 69.242188 320.394531 L 74.53125 327.675781 L 65.972656 330.457031 "/>
<path style=" stroke:none;fill-rule:nonzero;fill:rgb(100%,100%,100%);fill-opacity:0.96;" d="M 132.101562 210.8125 C 132.101562 212.8125 129.101562 212.8125 129.101562 210.8125 C 129.101562 208.8125 132.101562 208.8125 132.101562 210.8125 "/>
<path style=" stroke:none;fill-rule:nonzero;fill:rgb(100%,100%,100%);fill-opacity:0.96;" d="M 106.886719 210.8125 C 106.886719 213.148438 103.386719 213.148438 103.386719 210.8125 C 103.386719 208.480469 106.886719 208.480469 106.886719 210.8125 "/>
<path style="fill:none;stroke-width:2;stroke-linecap:butt;stroke-linejoin:miter;stroke:rgb(0%,0%,0%);stroke-opacity:0.96;stroke-miterlimit:10;" d="M 128.691406 210.8125 L 114.328125 210.8125 "/>
<path style=" stroke:none;fill-rule:nonzero;fill:rgb(0%,0%,0%);fill-opacity:0.96;" d="M 114.328125 216.105469 L 107.046875 210.8125 L 114.328125 205.523438 "/>
<path style=" stroke:none;fill-rule:nonzero;fill:rgb(100%,100%,100%);fill-opacity:0.96;" d="M 132.101562 210.8125 C 132.101562 212.8125 129.101562 212.8125 129.101562 210.8125 C 129.101562 208.8125 132.101562 208.8125 132.101562 210.8125 "/>
<path style=" stroke:none;fill-rule:nonzero;fill:rgb(100%,100%,100%);fill-opacity:0.96;" d="M 149.945312 186.597656 C 149.945312 188.929688 146.445312 188.929688 146.445312 186.597656 C 146.445312 184.261719 149.945312 184.261719 149.945312 186.597656 "/>
<path style="fill:none;stroke-width:2;stroke-linecap:butt;stroke-linejoin:miter;stroke:rgb(0%,0%,0%);stroke-opacity:0.96;stroke-miterlimit:10;" d="M 131.921875 208.996094 L 142.597656 194.304688 "/>
<path style=" stroke:none;fill-rule:nonzero;fill:rgb(0%,0%,0%);fill-opacity:0.96;" d="M 138.316406 191.195312 L 146.875 188.414062 L 146.875 197.414062 "/>
<path style=" stroke:none;fill-rule:nonzero;fill:rgb(100%,100%,100%);fill-opacity:0.96;" d="M 47.839844 235.03125 C 47.839844 237.03125 44.839844 237.03125 44.839844 235.03125 C 44.839844 233.03125 47.839844 233.03125 47.839844 235.03125 "/>
<path style=" stroke:none;fill-rule:nonzero;fill:rgb(100%,100%,100%);fill-opacity:0.96;" d="M 89.292969 235.03125 C 89.292969 237.367188 85.792969 237.367188 85.792969 235.03125 C 85.792969 232.699219 89.292969 232.699219 89.292969 235.03125 "/>
<path style="fill:none;stroke-width:2;stroke-linecap:butt;stroke-linejoin:miter;stroke:rgb(0%,0%,0%);stroke-opacity:0.96;stroke-miterlimit:10;" d="M 49.429688 235.03125 L 77.171875 235.03125 "/>
<path style=" stroke:none;fill-rule:nonzero;fill:rgb(0%,0%,0%);fill-opacity:0.96;" d="M 77.171875 229.742188 L 84.449219 235.03125 L 77.171875 240.324219 "/>
<path style=" stroke:none;fill-rule:nonzero;fill:rgb(100%,100%,100%);fill-opacity:0.96;" d="M 47.839844 235.03125 C 47.839844 237.03125 44.839844 237.03125 44.839844 235.03125 C 44.839844 233.03125 47.839844 233.03125 47.839844 235.03125 "/>
<path style=" stroke:none;fill-rule:nonzero;fill:rgb(100%,100%,100%);fill-opacity:0.96;" d="M 37.214844 220.066406 C 37.214844 222.398438 33.714844 222.398438 33.714844 220.066406 C 33.714844 217.730469 37.214844 217.730469 37.214844 220.066406 "/>
<path style="fill:none;stroke-width:2;stroke-linecap:butt;stroke-linejoin:miter;stroke:rgb(0%,0%,0%);stroke-opacity:0.96;stroke-miterlimit:10;" d="M 45.523438 233.910156 L 40.558594 227.078125 "/>
<path style=" stroke:none;fill-rule:nonzero;fill:rgb(0%,0%,0%);fill-opacity:0.96;" d="M 36.28125 230.1875 L 36.28125 221.1875 L 44.839844 223.96875 "/>
<path style=" stroke:none;fill-rule:nonzero;fill:rgb(100%,100%,100%);fill-opacity:0.96;" d="M 89.042969 235.03125 C 89.042969 237.03125 86.042969 237.03125 86.042969 235.03125 C 86.042969 233.03125 89.042969 233.03125 89.042969 235.03125 "/>
<path style=" stroke:none;fill-rule:nonzero;fill:rgb(100%,100%,100%);fill-opacity:0.96;" d="M 106.886719 210.8125 C 106.886719 213.148438 103.386719 213.148438 103.386719 210.8125 C 103.386719 208.480469 106.886719 208.480469 106.886719 210.8125 "/>
<path style="fill:none;stroke-width:2;stroke-linecap:butt;stroke-linejoin:miter;stroke:rgb(0%,0%,0%);stroke-opacity:0.96;stroke-miterlimit:10;" d="M 88.859375 233.214844 L 99.539062 218.519531 "/>
<path style=" stroke:none;fill-rule:nonzero;fill:rgb(0%,0%,0%);fill-opacity:0.96;" d="M 95.257812 215.410156 L 103.816406 212.628906 L 103.816406 221.628906 "/>
<path style=" stroke:none;fill-rule:nonzero;fill:rgb(100%,100%,100%);fill-opacity:0.96;" d="M 106.636719 210.8125 C 106.636719 212.8125 103.636719 212.8125 103.636719 210.8125 C 103.636719 208.8125 106.636719 208.8125 106.636719 210.8125 "/>
<path style=" stroke:none;fill-rule:nonzero;fill:rgb(100%,100%,100%);fill-opacity:0.96;" d="M 78.417969 171.628906 C 78.417969 173.960938 74.917969 173.960938 74.917969 171.628906 C 74.917969 169.296875 78.417969 169.296875 78.417969 171.628906 "/>
<path style="fill:none;stroke-width:2;stroke-linecap:butt;stroke-linejoin:miter;stroke:rgb(0%,0%,0%);stroke-opacity:0.96;stroke-miterlimit:10;" d="M 103 207.875 L 83.082031 180.457031 "/>
<path style=" stroke:none;fill-rule:nonzero;fill:rgb(0%,0%,0%);fill-opacity:0.96;" d="M 78.800781 183.566406 L 78.800781 174.566406 L 87.363281 177.347656 "/>
<path style=" stroke:none;fill-rule:nonzero;fill:rgb(100%,100%,100%);fill-opacity:0.96;" d="M 36.964844 220.066406 C 36.964844 222.066406 33.964844 222.066406 33.964844 220.066406 C 33.964844 218.066406 36.964844 218.066406 36.964844 220.066406 "/>
<path style=" stroke:none;fill-rule:nonzero;fill:rgb(100%,100%,100%);fill-opacity:0.96;" d="M 49.945312 180.878906 C 49.945312 183.210938 46.445312 183.210938 46.445312 180.878906 C 46.445312 178.546875 49.945312 178.546875 49.945312 180.878906 "/>
<path style="fill:none;stroke-width:2;stroke-linecap:butt;stroke-linejoin:miter;stroke:rgb(0%,0%,0%);stroke-opacity:0.96;stroke-miterlimit:10;" d="M 36.417969 217.125 L 44.992188 190.742188 "/>
<path style=" stroke:none;fill-rule:nonzero;fill:rgb(0%,0%,0%);fill-opacity:0.96;" d="M 39.960938 189.109375 L 47.242188 183.816406 L 50.023438 192.378906 "/>
<path style=" stroke:none;fill-rule:nonzero;fill:rgb(100%,100%,100%);fill-opacity:0.96;" d="M 49.695312 180.878906 C 49.695312 182.878906 46.695312 182.878906 46.695312 180.878906 C 46.695312 178.878906 49.695312 178.878906 49.695312 180.878906 "/>
<path style=" stroke:none;fill-rule:nonzero;fill:rgb(100%,100%,100%);fill-opacity:0.96;" d="M 78.417969 171.628906 C 78.417969 173.960938 74.917969 173.960938 74.917969 171.628906 C 74.917969 169.296875 78.417969 169.296875 78.417969 171.628906 "/>
<path style="fill:none;stroke-width:2;stroke-linecap:butt;stroke-linejoin:miter;stroke:rgb(0%,0%,0%);stroke-opacity:0.96;stroke-miterlimit:10;" d="M 50.332031 180.183594 L 67.605469 174.574219 "/>
<path style=" stroke:none;fill-rule:nonzero;fill:rgb(0%,0%,0%);fill-opacity:0.96;" d="M 65.972656 169.542969 L 74.53125 172.324219 L 69.242188 179.605469 "/>
<path style=" stroke:none;fill-rule:nonzero;fill:rgb(100%,100%,100%);fill-opacity:0.96;" d="M 78.167969 171.628906 C 78.167969 173.628906 75.167969 173.628906 75.167969 171.628906 C 75.167969 169.628906 78.167969 169.628906 78.167969 171.628906 "/>
<path style=" stroke:none;fill-rule:nonzero;fill:rgb(100%,100%,100%);fill-opacity:0.96;" d="M 96.011719 147.410156 C 96.011719 149.742188 92.511719 149.742188 92.511719 147.410156 C 92.511719 145.078125 96.011719 145.078125 96.011719 147.410156 "/>
<path style="fill:none;stroke-width:2;stroke-linecap:butt;stroke-linejoin:miter;stroke:rgb(0%,0%,0%);stroke-opacity:0.96;stroke-miterlimit:10;" d="M 77.984375 169.8125 L 88.664062 155.117188 "/>
<path style=" stroke:none;fill-rule:nonzero;fill:rgb(0%,0%,0%);fill-opacity:0.96;" d="M 84.382812 152.007812 L 92.941406 149.226562 L 92.941406 158.226562 "/>
<path style=" stroke:none;fill-rule:nonzero;fill:rgb(100%,100%,100%);fill-opacity:0.96;" d="M 149.695312 186.597656 C 149.695312 188.597656 146.695312 188.597656 146.695312 186.597656 C 146.695312 184.597656 149.695312 184.597656 149.695312 186.597656 "/>
<path style=" stroke:none;fill-rule:nonzero;fill:rgb(100%,100%,100%);fill-opacity:0.96;" d="M 142.078125 162.378906 C 142.078125 164.710938 138.578125 164.710938 138.578125 162.378906 C 138.578125 160.042969 142.078125 160.042969 142.078125 162.378906 "/>
<path style="fill:none;stroke-width:2;stroke-linecap:butt;stroke-linejoin:miter;stroke:rgb(0%,0%,0%);stroke-opacity:0.96;stroke-miterlimit:10;" d="M 147.605469 184.78125 L 143.167969 171.121094 "/>
<path style=" stroke:none;fill-rule:nonzero;fill:rgb(0%,0%,0%);fill-opacity:0.96;" d="M 138.136719 172.753906 L 140.917969 164.195312 L 148.199219 169.484375 "/>
<path style=" stroke:none;fill-rule:nonzero;fill:rgb(100%,100%,100%);fill-opacity:0.96;" d="M 146.691406 98.972656 C 146.691406 100.972656 143.691406 100.972656 143.691406 98.972656 C 143.691406 96.972656 146.691406 96.972656 146.691406 98.972656 "/>
<path style=" stroke:none;fill-rule:nonzero;fill:rgb(100%,100%,100%);fill-opacity:0.96;" d="M 159.671875 138.160156 C 159.671875 140.492188 156.171875 140.492188 156.171875 138.160156 C 156.171875 135.828125 159.671875 135.828125 159.671875 138.160156 "/>
<path style="fill:none;stroke-width:2;stroke-linecap:butt;stroke-linejoin:miter;stroke:rgb(0%,0%,0%);stroke-opacity:0.96;stroke-miterlimit:10;" d="M 146.144531 101.914062 L 154.71875 128.296875 "/>
<path style=" stroke:none;fill-rule:nonzero;fill:rgb(0%,0%,0%);fill-opacity:0.96;" d="M 159.75 126.660156 L 156.96875 135.222656 L 149.6875 129.929688 "/>
<path style=" stroke:none;fill-rule:nonzero;fill:rgb(100%,100%,100%);fill-opacity:0.96;" d="M 146.691406 98.972656 C 146.691406 100.972656 143.691406 100.972656 143.691406 98.972656 C 143.691406 96.972656 146.691406 96.972656 146.691406 98.972656 "/>
<path style=" stroke:none;fill-rule:nonzero;fill:rgb(100%,100%,100%);fill-opacity:0.96;" d="M 129.34375 93.257812 C 129.34375 95.589844 125.84375 95.589844 125.84375 93.257812 C 125.84375 90.925781 129.34375 90.925781 129.34375 93.257812 "/>
<path style="fill:none;stroke-width:2;stroke-linecap:butt;stroke-linejoin:miter;stroke:rgb(0%,0%,0%);stroke-opacity:0.96;stroke-miterlimit:10;" d="M 143.871094 98.546875 L 135.839844 95.9375 "/>
<path style=" stroke:none;fill-rule:nonzero;fill:rgb(0%,0%,0%);fill-opacity:0.96;" d="M 134.207031 100.96875 L 128.914062 93.6875 L 137.476562 90.90625 "/>
<path style=" stroke:none;fill-rule:nonzero;fill:rgb(100%,100%,100%);fill-opacity:0.96;" d="M 146.691406 98.972656 C 146.691406 100.972656 143.691406 100.972656 143.691406 98.972656 C 143.691406 96.972656 146.691406 96.972656 146.691406 98.972656 "/>
<path style=" stroke:none;fill-rule:nonzero;fill:rgb(100%,100%,100%);fill-opacity:0.96;" d="M 175.410156 89.722656 C 175.410156 92.058594 171.910156 92.058594 171.910156 89.722656 C 171.910156 87.390625 175.410156 87.390625 175.410156 89.722656 "/>
<path style="fill:none;stroke-width:2;stroke-linecap:butt;stroke-linejoin:miter;stroke:rgb(0%,0%,0%);stroke-opacity:0.96;stroke-miterlimit:10;" d="M 147.328125 98.28125 L 164.601562 92.667969 "/>
<path style=" stroke:none;fill-rule:nonzero;fill:rgb(0%,0%,0%);fill-opacity:0.96;" d="M 162.964844 87.636719 L 171.527344 90.417969 L 166.234375 97.699219 "/>
<path style=" stroke:none;fill-rule:nonzero;fill:rgb(100%,100%,100%);fill-opacity:0.96;" d="M 159.421875 138.160156 C 159.421875 140.160156 156.421875 140.160156 156.421875 138.160156 C 156.421875 136.160156 159.421875 136.160156 159.421875 138.160156 "/>
<path style=" stroke:none;fill-rule:nonzero;fill:rgb(100%,100%,100%);fill-opacity:0.96;" d="M 142.078125 162.378906 C 142.078125 164.710938 138.578125 164.710938 138.578125 162.378906 C 138.578125 160.042969 142.078125 160.042969 142.078125 162.378906 "/>
<path style="fill:none;stroke-width:2;stroke-linecap:butt;stroke-linejoin:miter;stroke:rgb(0%,0%,0%);stroke-opacity:0.96;stroke-miterlimit:10;" d="M 156.601562 139.976562 L 145.925781 154.671875 "/>
<path style=" stroke:none;fill-rule:nonzero;fill:rgb(0%,0%,0%);fill-opacity:0.96;" d="M 150.207031 157.78125 L 141.648438 160.5625 L 141.648438 151.5625 "/>
<path style=" stroke:none;fill-rule:nonzero;fill:rgb(100%,100%,100%);fill-opacity:0.96;" d="M 159.421875 138.160156 C 159.421875 140.160156 156.421875 140.160156 156.421875 138.160156 C 156.421875 136.160156 159.421875 136.160156 159.421875 138.160156 "/>
<path style=" stroke:none;fill-rule:nonzero;fill:rgb(100%,100%,100%);fill-opacity:0.96;" d="M 188.144531 128.910156 C 188.144531 131.242188 184.644531 131.242188 184.644531 128.910156 C 184.644531 126.578125 188.144531 126.578125 188.144531 128.910156 "/>
<path style="fill:none;stroke-width:2;stroke-linecap:butt;stroke-linejoin:miter;stroke:rgb(0%,0%,0%);stroke-opacity:0.96;stroke-miterlimit:10;" d="M 160.058594 137.464844 L 177.332031 131.851562 "/>
<path style=" stroke:none;fill-rule:nonzero;fill:rgb(0%,0%,0%);fill-opacity:0.96;" d="M 175.699219 126.820312 L 184.257812 129.601562 L 178.96875 136.882812 "/>
<path style=" stroke:none;fill-rule:nonzero;fill:rgb(100%,100%,100%);fill-opacity:0.96;" d="M 141.828125 162.378906 C 141.828125 164.378906 138.828125 164.378906 138.828125 162.378906 C 138.828125 160.378906 141.828125 160.378906 141.828125 162.378906 "/>
<path style=" stroke:none;fill-rule:nonzero;fill:rgb(100%,100%,100%);fill-opacity:0.96;" d="M 96.011719 147.410156 C 96.011719 149.742188 92.511719 149.742188 92.511719 147.410156 C 92.511719 145.078125 96.011719 145.078125 96.011719 147.410156 "/>
<path style="fill:none;stroke-width:2;stroke-linecap:butt;stroke-linejoin:miter;stroke:rgb(0%,0%,0%);stroke-opacity:0.96;stroke-miterlimit:10;" d="M 136.871094 161.253906 L 104.640625 150.78125 "/>
<path style=" stroke:none;fill-rule:nonzero;fill:rgb(0%,0%,0%);fill-opacity:0.96;" d="M 103.007812 155.8125 L 97.71875 148.53125 L 106.277344 145.753906 "/>
<path style=" stroke:none;fill-rule:nonzero;fill:rgb(100%,100%,100%);fill-opacity:0.96;" d="M 129.09375 93.257812 C 129.09375 95.257812 126.09375 95.257812 126.09375 93.257812 C 126.09375 91.257812 129.09375 91.257812 129.09375 93.257812 "/>
<path style=" stroke:none;fill-rule:nonzero;fill:rgb(100%,100%,100%);fill-opacity:0.96;" d="M 96.011719 117.476562 C 96.011719 119.808594 92.511719 119.808594 92.511719 117.476562 C 92.511719 115.140625 96.011719 115.140625 96.011719 117.476562 "/>
<path style="fill:none;stroke-width:2;stroke-linecap:butt;stroke-linejoin:miter;stroke:rgb(0%,0%,0%);stroke-opacity:0.96;stroke-miterlimit:10;" d="M 125.09375 95.074219 L 102.652344 111.378906 "/>
<path style=" stroke:none;fill-rule:nonzero;fill:rgb(0%,0%,0%);fill-opacity:0.96;" d="M 105.761719 115.660156 L 96.761719 115.660156 L 99.542969 107.097656 "/>
<path style=" stroke:none;fill-rule:nonzero;fill:rgb(100%,100%,100%);fill-opacity:0.96;" d="M 95.761719 117.476562 C 95.761719 119.476562 92.761719 119.476562 92.761719 117.476562 C 92.761719 115.476562 95.761719 115.476562 95.761719 117.476562 "/>
<path style=" stroke:none;fill-rule:nonzero;fill:rgb(100%,100%,100%);fill-opacity:0.96;" d="M 96.011719 147.410156 C 96.011719 149.742188 92.511719 149.742188 92.511719 147.410156 C 92.511719 145.078125 96.011719 145.078125 96.011719 147.410156 "/>
<path style="fill:none;stroke-width:2;stroke-linecap:butt;stroke-linejoin:miter;stroke:rgb(0%,0%,0%);stroke-opacity:0.96;stroke-miterlimit:10;" d="M 94.261719 119.71875 L 94.261719 137.882812 "/>
<path style=" stroke:none;fill-rule:nonzero;fill:rgb(0%,0%,0%);fill-opacity:0.96;" d="M 99.550781 137.882812 L 94.261719 145.164062 L 88.972656 137.882812 "/>
<path style=" stroke:none;fill-rule:nonzero;fill:rgb(100%,100%,100%);fill-opacity:0.96;" d="M 224.230469 162.378906 C 224.230469 164.378906 221.230469 164.378906 221.230469 162.378906 C 221.230469 160.378906 224.230469 160.378906 224.230469 162.378906 "/>
<path style=" stroke:none;fill-rule:nonzero;fill:rgb(100%,100%,100%);fill-opacity:0.96;" d="M 216.613281 138.160156 C 216.613281 140.492188 213.113281 140.492188 213.113281 138.160156 C 213.113281 135.828125 216.613281 135.828125 216.613281 138.160156 "/>
<path style="fill:none;stroke-width:2;stroke-linecap:butt;stroke-linejoin:miter;stroke:rgb(0%,0%,0%);stroke-opacity:0.96;stroke-miterlimit:10;" d="M 222.140625 160.5625 L 217.703125 146.902344 "/>
<path style=" stroke:none;fill-rule:nonzero;fill:rgb(0%,0%,0%);fill-opacity:0.96;" d="M 212.671875 148.535156 L 215.453125 139.976562 L 222.734375 145.265625 "/>
<path style=" stroke:none;fill-rule:nonzero;fill:rgb(100%,100%,100%);fill-opacity:0.96;" d="M 224.230469 162.378906 C 224.230469 164.378906 221.230469 164.378906 221.230469 162.378906 C 221.230469 160.378906 224.230469 160.378906 224.230469 162.378906 "/>
<path style=" stroke:none;fill-rule:nonzero;fill:rgb(100%,100%,100%);fill-opacity:0.96;" d="M 252.953125 171.628906 C 252.953125 173.960938 249.453125 173.960938 249.453125 171.628906 C 249.453125 169.296875 252.953125 169.296875 252.953125 171.628906 "/>
<path style="fill:none;stroke-width:2;stroke-linecap:butt;stroke-linejoin:miter;stroke:rgb(0%,0%,0%);stroke-opacity:0.96;stroke-miterlimit:10;" d="M 224.867188 163.070312 L 242.140625 168.683594 "/>
<path style=" stroke:none;fill-rule:nonzero;fill:rgb(0%,0%,0%);fill-opacity:0.96;" d="M 243.777344 163.652344 L 249.066406 170.933594 L 240.507812 173.714844 "/>
<path style=" stroke:none;fill-rule:nonzero;fill:rgb(100%,100%,100%);fill-opacity:0.96;" d="M 175.160156 89.722656 C 175.160156 91.722656 172.160156 91.722656 172.160156 89.722656 C 172.160156 87.722656 175.160156 87.722656 175.160156 89.722656 "/>
<path style=" stroke:none;fill-rule:nonzero;fill:rgb(100%,100%,100%);fill-opacity:0.96;" d="M 188.144531 128.910156 C 188.144531 131.242188 184.644531 131.242188 184.644531 128.910156 C 184.644531 126.578125 188.144531 126.578125 188.144531 128.910156 "/>
<path style="fill:none;stroke-width:2;stroke-linecap:butt;stroke-linejoin:miter;stroke:rgb(0%,0%,0%);stroke-opacity:0.96;stroke-miterlimit:10;" d="M 174.617188 92.664062 L 183.1875 119.046875 "/>
<path style=" stroke:none;fill-rule:nonzero;fill:rgb(0%,0%,0%);fill-opacity:0.96;" d="M 188.21875 117.410156 L 185.4375 125.96875 L 178.15625 120.679688 "/>
<path style=" stroke:none;fill-rule:nonzero;fill:rgb(100%,100%,100%);fill-opacity:0.96;" d="M 175.160156 89.722656 C 175.160156 91.722656 172.160156 91.722656 172.160156 89.722656 C 172.160156 87.722656 175.160156 87.722656 175.160156 89.722656 "/>
<path style=" stroke:none;fill-rule:nonzero;fill:rgb(100%,100%,100%);fill-opacity:0.96;" d="M 186.285156 74.757812 C 186.285156 77.089844 182.785156 77.089844 182.785156 74.757812 C 182.785156 72.421875 186.285156 72.421875 186.285156 74.757812 "/>
<path style="fill:none;stroke-width:2;stroke-linecap:butt;stroke-linejoin:miter;stroke:rgb(0%,0%,0%);stroke-opacity:0.96;stroke-miterlimit:10;" d="M 174.476562 88.601562 L 179.441406 81.769531 "/>
<path style=" stroke:none;fill-rule:nonzero;fill:rgb(0%,0%,0%);fill-opacity:0.96;" d="M 175.160156 78.660156 L 183.71875 75.878906 L 183.71875 84.878906 "/>
<path style=" stroke:none;fill-rule:nonzero;fill:rgb(100%,100%,100%);fill-opacity:0.96;" d="M 187.894531 128.910156 C 187.894531 130.910156 184.894531 130.910156 184.894531 128.910156 C 184.894531 126.910156 187.894531 126.910156 187.894531 128.910156 "/>
<path style=" stroke:none;fill-rule:nonzero;fill:rgb(100%,100%,100%);fill-opacity:0.96;" d="M 216.613281 138.160156 C 216.613281 140.492188 213.113281 140.492188 213.113281 138.160156 C 213.113281 135.828125 216.613281 135.828125 216.613281 138.160156 "/>
<path style="fill:none;stroke-width:2;stroke-linecap:butt;stroke-linejoin:miter;stroke:rgb(0%,0%,0%);stroke-opacity:0.96;stroke-miterlimit:10;" d="M 188.527344 129.601562 L 205.804688 135.214844 "/>
<path style=" stroke:none;fill-rule:nonzero;fill:rgb(0%,0%,0%);fill-opacity:0.96;" d="M 207.4375 130.183594 L 212.726562 137.464844 L 204.167969 140.246094 "/>
<path style=" stroke:none;fill-rule:nonzero;fill:rgb(100%,100%,100%);fill-opacity:0.96;" d="M 216.363281 138.160156 C 216.363281 140.160156 213.363281 140.160156 213.363281 138.160156 C 213.363281 136.160156 216.363281 136.160156 216.363281 138.160156 "/>
<path style=" stroke:none;fill-rule:nonzero;fill:rgb(100%,100%,100%);fill-opacity:0.96;" d="M 245.082031 98.972656 C 245.082031 101.308594 241.582031 101.308594 241.582031 98.972656 C 241.582031 96.640625 245.082031 96.640625 245.082031 98.972656 "/>
<path style="fill:none;stroke-width:2;stroke-linecap:butt;stroke-linejoin:miter;stroke:rgb(0%,0%,0%);stroke-opacity:0.96;stroke-miterlimit:10;" d="M 217 135.222656 L 236.917969 107.804688 "/>
<path style=" stroke:none;fill-rule:nonzero;fill:rgb(0%,0%,0%);fill-opacity:0.96;" d="M 232.636719 104.695312 L 241.199219 101.914062 L 241.199219 110.914062 "/>
<path style=" stroke:none;fill-rule:nonzero;fill:rgb(100%,100%,100%);fill-opacity:0.96;" d="M 186.035156 74.757812 C 186.035156 76.757812 183.035156 76.757812 183.035156 74.757812 C 183.035156 72.757812 186.035156 72.757812 186.035156 74.757812 "/>
<path style=" stroke:none;fill-rule:nonzero;fill:rgb(100%,100%,100%);fill-opacity:0.96;" d="M 227.488281 74.757812 C 227.488281 77.089844 223.988281 77.089844 223.988281 74.757812 C 223.988281 72.421875 227.488281 72.421875 227.488281 74.757812 "/>
<path style="fill:none;stroke-width:2;stroke-linecap:butt;stroke-linejoin:miter;stroke:rgb(0%,0%,0%);stroke-opacity:0.96;stroke-miterlimit:10;" d="M 187.625 74.757812 L 215.367188 74.757812 "/>
<path style=" stroke:none;fill-rule:nonzero;fill:rgb(0%,0%,0%);fill-opacity:0.96;" d="M 215.367188 69.464844 L 222.648438 74.757812 L 215.367188 80.046875 "/>
<path style=" stroke:none;fill-rule:nonzero;fill:rgb(100%,100%,100%);fill-opacity:0.96;" d="M 227.238281 74.757812 C 227.238281 76.757812 224.238281 76.757812 224.238281 74.757812 C 224.238281 72.757812 227.238281 72.757812 227.238281 74.757812 "/>
<path style=" stroke:none;fill-rule:nonzero;fill:rgb(100%,100%,100%);fill-opacity:0.96;" d="M 245.082031 98.972656 C 245.082031 101.308594 241.582031 101.308594 241.582031 98.972656 C 241.582031 96.640625 245.082031 96.640625 245.082031 98.972656 "/>
<path style="fill:none;stroke-width:2;stroke-linecap:butt;stroke-linejoin:miter;stroke:rgb(0%,0%,0%);stroke-opacity:0.96;stroke-miterlimit:10;" d="M 227.058594 76.574219 L 237.734375 91.265625 "/>
<path style=" stroke:none;fill-rule:nonzero;fill:rgb(0%,0%,0%);fill-opacity:0.96;" d="M 242.015625 88.15625 L 242.015625 97.15625 L 233.453125 94.375 "/>
<path style=" stroke:none;fill-rule:nonzero;fill:rgb(100%,100%,100%);fill-opacity:0.96;" d="M 244.832031 98.972656 C 244.832031 100.972656 241.832031 100.972656 241.832031 98.972656 C 241.832031 96.972656 244.832031 96.972656 244.832031 98.972656 "/>
<path style=" stroke:none;fill-rule:nonzero;fill:rgb(100%,100%,100%);fill-opacity:0.96;" d="M 273.554688 108.226562 C 273.554688 110.558594 270.054688 110.558594 270.054688 108.226562 C 270.054688 105.890625 273.554688 105.890625 273.554688 108.226562 "/>
<path style="fill:none;stroke-width:2;stroke-linecap:butt;stroke-linejoin:miter;stroke:rgb(0%,0%,0%);stroke-opacity:0.96;stroke-miterlimit:10;" d="M 245.46875 99.667969 L 262.742188 105.28125 "/>
<path style=" stroke:none;fill-rule:nonzero;fill:rgb(0%,0%,0%);fill-opacity:0.96;" d="M 264.378906 100.25 L 269.667969 107.53125 L 261.109375 110.3125 "/>
<path style=" stroke:none;fill-rule:nonzero;fill:rgb(100%,100%,100%);fill-opacity:0.96;" d="M 252.703125 171.628906 C 252.703125 173.628906 249.703125 173.628906 249.703125 171.628906 C 249.703125 169.628906 252.703125 169.628906 252.703125 171.628906 "/>
<path style=" stroke:none;fill-rule:nonzero;fill:rgb(100%,100%,100%);fill-opacity:0.96;" d="M 273.554688 156.660156 C 273.554688 158.996094 270.054688 158.996094 270.054688 156.660156 C 270.054688 154.328125 273.554688 154.328125 273.554688 156.660156 "/>
<path style="fill:none;stroke-width:2;stroke-linecap:butt;stroke-linejoin:miter;stroke:rgb(0%,0%,0%);stroke-opacity:0.96;stroke-miterlimit:10;" d="M 252.746094 170.507812 L 264.367188 162.0625 "/>
<path style=" stroke:none;fill-rule:nonzero;fill:rgb(0%,0%,0%);fill-opacity:0.96;" d="M 261.257812 157.785156 L 270.257812 157.785156 L 267.476562 166.34375 "/>
<path style=" stroke:none;fill-rule:nonzero;fill:rgb(100%,100%,100%);fill-opacity:0.96;" d="M 335.105469 141.695312 C 335.105469 143.695312 332.105469 143.695312 332.105469 141.695312 C 332.105469 139.695312 335.105469 139.695312 335.105469 141.695312 "/>
<path style=" stroke:none;fill-rule:nonzero;fill:rgb(100%,100%,100%);fill-opacity:0.96;" d="M 302.023438 165.910156 C 302.023438 168.246094 298.523438 168.246094 298.523438 165.910156 C 298.523438 163.578125 302.023438 163.578125 302.023438 165.910156 "/>
<path style="fill:none;stroke-width:2;stroke-linecap:butt;stroke-linejoin:miter;stroke:rgb(0%,0%,0%);stroke-opacity:0.96;stroke-miterlimit:10;" d="M 331.105469 143.511719 L 308.664062 159.816406 "/>
<path style=" stroke:none;fill-rule:nonzero;fill:rgb(0%,0%,0%);fill-opacity:0.96;" d="M 311.773438 164.09375 L 302.773438 164.09375 L 305.554688 155.535156 "/>
<path style=" stroke:none;fill-rule:nonzero;fill:rgb(100%,100%,100%);fill-opacity:0.96;" d="M 335.105469 141.695312 C 335.105469 143.695312 332.105469 143.695312 332.105469 141.695312 C 332.105469 139.695312 335.105469 139.695312 335.105469 141.695312 "/>
<path style=" stroke:none;fill-rule:nonzero;fill:rgb(100%,100%,100%);fill-opacity:0.96;" d="M 335.355469 123.191406 C 335.355469 125.527344 331.855469 125.527344 331.855469 123.191406 C 331.855469 120.859375 335.355469 120.859375 335.355469 123.191406 "/>
<path style="fill:none;stroke-width:2;stroke-linecap:butt;stroke-linejoin:miter;stroke:rgb(0%,0%,0%);stroke-opacity:0.96;stroke-miterlimit:10;" d="M 333.605469 140.304688 L 333.605469 131.859375 "/>
<path style=" stroke:none;fill-rule:nonzero;fill:rgb(0%,0%,0%);fill-opacity:0.96;" d="M 328.316406 131.859375 L 333.605469 124.578125 L 338.898438 131.859375 "/>
<path style=" stroke:none;fill-rule:nonzero;fill:rgb(100%,100%,100%);fill-opacity:0.96;" d="M 335.105469 141.695312 C 335.105469 143.695312 332.105469 143.695312 332.105469 141.695312 C 332.105469 139.695312 335.105469 139.695312 335.105469 141.695312 "/>
<path style=" stroke:none;fill-rule:nonzero;fill:rgb(100%,100%,100%);fill-opacity:0.96;" d="M 352.953125 165.910156 C 352.953125 168.246094 349.453125 168.246094 349.453125 165.910156 C 349.453125 163.578125 352.953125 163.578125 352.953125 165.910156 "/>
<path style="fill:none;stroke-width:2;stroke-linecap:butt;stroke-linejoin:miter;stroke:rgb(0%,0%,0%);stroke-opacity:0.96;stroke-miterlimit:10;" d="M 334.925781 143.511719 L 345.601562 158.203125 "/>
<path style=" stroke:none;fill-rule:nonzero;fill:rgb(0%,0%,0%);fill-opacity:0.96;" d="M 349.882812 155.09375 L 349.882812 164.09375 L 341.324219 161.3125 "/>
<path style=" stroke:none;fill-rule:nonzero;fill:rgb(100%,100%,100%);fill-opacity:0.96;" d="M 301.773438 165.910156 C 301.773438 167.910156 298.773438 167.910156 298.773438 165.910156 C 298.773438 163.910156 301.773438 163.910156 301.773438 165.910156 "/>
<path style=" stroke:none;fill-rule:nonzero;fill:rgb(100%,100%,100%);fill-opacity:0.96;" d="M 273.554688 156.660156 C 273.554688 158.996094 270.054688 158.996094 270.054688 156.660156 C 270.054688 154.328125 273.554688 154.328125 273.554688 156.660156 "/>
<path style="fill:none;stroke-width:2;stroke-linecap:butt;stroke-linejoin:miter;stroke:rgb(0%,0%,0%);stroke-opacity:0.96;stroke-miterlimit:10;" d="M 298.136719 165.21875 L 280.863281 159.605469 "/>
<path style=" stroke:none;fill-rule:nonzero;fill:rgb(0%,0%,0%);fill-opacity:0.96;" d="M 279.230469 164.636719 L 273.9375 157.355469 L 282.5 154.574219 "/>
<path style=" stroke:none;fill-rule:nonzero;fill:rgb(100%,100%,100%);fill-opacity:0.96;" d="M 301.773438 165.910156 C 301.773438 167.910156 298.773438 167.910156 298.773438 165.910156 C 298.773438 163.910156 301.773438 163.910156 301.773438 165.910156 "/>
<path style=" stroke:none;fill-rule:nonzero;fill:rgb(100%,100%,100%);fill-opacity:0.96;" d="M 319.617188 190.128906 C 319.617188 192.464844 316.117188 192.464844 316.117188 190.128906 C 316.117188 187.796875 319.617188 187.796875 319.617188 190.128906 "/>
<path style="fill:none;stroke-width:2;stroke-linecap:butt;stroke-linejoin:miter;stroke:rgb(0%,0%,0%);stroke-opacity:0.96;stroke-miterlimit:10;" d="M 301.59375 167.726562 L 312.269531 182.421875 "/>
<path style=" stroke:none;fill-rule:nonzero;fill:rgb(0%,0%,0%);fill-opacity:0.96;" d="M 316.550781 179.3125 L 316.550781 188.3125 L 307.988281 185.53125 "/>
<path style=" stroke:none;fill-rule:nonzero;fill:rgb(100%,100%,100%);fill-opacity:0.96;" d="M 273.304688 156.660156 C 273.304688 158.660156 270.304688 158.660156 270.304688 156.660156 C 270.304688 154.660156 273.304688 154.660156 273.304688 156.660156 "/>
<path style=" stroke:none;fill-rule:nonzero;fill:rgb(100%,100%,100%);fill-opacity:0.96;" d="M 273.554688 108.226562 C 273.554688 110.558594 270.054688 110.558594 270.054688 108.226562 C 270.054688 105.890625 273.554688 105.890625 273.554688 108.226562 "/>
<path style="fill:none;stroke-width:2;stroke-linecap:butt;stroke-linejoin:miter;stroke:rgb(0%,0%,0%);stroke-opacity:0.96;stroke-miterlimit:10;" d="M 271.804688 153.027344 L 271.804688 119.140625 "/>
<path style=" stroke:none;fill-rule:nonzero;fill:rgb(0%,0%,0%);fill-opacity:0.96;" d="M 266.511719 119.140625 L 271.804688 111.859375 L 277.09375 119.140625 "/>
<path style=" stroke:none;fill-rule:nonzero;fill:rgb(100%,100%,100%);fill-opacity:0.96;" d="M 335.105469 123.191406 C 335.105469 125.191406 332.105469 125.191406 332.105469 123.191406 C 332.105469 121.191406 335.105469 121.191406 335.105469 123.191406 "/>
<path style=" stroke:none;fill-rule:nonzero;fill:rgb(100%,100%,100%);fill-opacity:0.96;" d="M 302.023438 98.972656 C 302.023438 101.308594 298.523438 101.308594 298.523438 98.972656 C 298.523438 96.640625 302.023438 96.640625 302.023438 98.972656 "/>
<path style="fill:none;stroke-width:2;stroke-linecap:butt;stroke-linejoin:miter;stroke:rgb(0%,0%,0%);stroke-opacity:0.96;stroke-miterlimit:10;" d="M 331.105469 121.375 L 308.664062 105.070312 "/>
<path style=" stroke:none;fill-rule:nonzero;fill:rgb(0%,0%,0%);fill-opacity:0.96;" d="M 305.554688 109.351562 L 302.773438 100.789062 L 311.773438 100.789062 "/>
<path style=" stroke:none;fill-rule:nonzero;fill:rgb(100%,100%,100%);fill-opacity:0.96;" d="M 301.773438 98.972656 C 301.773438 100.972656 298.773438 100.972656 298.773438 98.972656 C 298.773438 96.972656 301.773438 96.972656 301.773438 98.972656 "/>
<path style=" stroke:none;fill-rule:nonzero;fill:rgb(100%,100%,100%);fill-opacity:0.96;" d="M 273.554688 108.226562 C 273.554688 110.558594 270.054688 110.558594 270.054688 108.226562 C 270.054688 105.890625 273.554688 105.890625 273.554688 108.226562 "/>
<path style="fill:none;stroke-width:2;stroke-linecap:butt;stroke-linejoin:miter;stroke:rgb(0%,0%,0%);stroke-opacity:0.96;stroke-miterlimit:10;" d="M 298.136719 99.667969 L 280.863281 105.28125 "/>
<path style=" stroke:none;fill-rule:nonzero;fill:rgb(0%,0%,0%);fill-opacity:0.96;" d="M 282.5 110.3125 L 273.9375 107.53125 L 279.230469 100.25 "/>
<path style=" stroke:none;fill-rule:nonzero;fill:rgb(100%,100%,100%);fill-opacity:0.96;" d="M 298.769531 235.03125 C 298.769531 237.03125 295.769531 237.03125 295.769531 235.03125 C 295.769531 233.03125 298.769531 233.03125 298.769531 235.03125 "/>
<path style=" stroke:none;fill-rule:nonzero;fill:rgb(100%,100%,100%);fill-opacity:0.96;" d="M 319.617188 220.066406 C 319.617188 222.398438 316.117188 222.398438 316.117188 220.066406 C 316.117188 217.730469 319.617188 217.730469 319.617188 220.066406 "/>
<path style="fill:none;stroke-width:2;stroke-linecap:butt;stroke-linejoin:miter;stroke:rgb(0%,0%,0%);stroke-opacity:0.96;stroke-miterlimit:10;" d="M 298.8125 233.910156 L 310.433594 225.46875 "/>
<path style=" stroke:none;fill-rule:nonzero;fill:rgb(0%,0%,0%);fill-opacity:0.96;" d="M 307.324219 221.1875 L 316.324219 221.1875 L 313.542969 229.746094 "/>
<path style=" stroke:none;fill-rule:nonzero;fill:rgb(100%,100%,100%);fill-opacity:0.96;" d="M 352.703125 165.910156 C 352.703125 167.910156 349.703125 167.910156 349.703125 165.910156 C 349.703125 163.910156 352.703125 163.910156 352.703125 165.910156 "/>
<path style=" stroke:none;fill-rule:nonzero;fill:rgb(100%,100%,100%);fill-opacity:0.96;" d="M 319.617188 190.128906 C 319.617188 192.464844 316.117188 192.464844 316.117188 190.128906 C 316.117188 187.796875 319.617188 187.796875 319.617188 190.128906 "/>
<path style="fill:none;stroke-width:2;stroke-linecap:butt;stroke-linejoin:miter;stroke:rgb(0%,0%,0%);stroke-opacity:0.96;stroke-miterlimit:10;" d="M 348.703125 167.726562 L 326.257812 184.035156 "/>
<path style=" stroke:none;fill-rule:nonzero;fill:rgb(0%,0%,0%);fill-opacity:0.96;" d="M 329.367188 188.3125 L 320.367188 188.3125 L 323.148438 179.753906 "/>
<path style=" stroke:none;fill-rule:nonzero;fill:rgb(100%,100%,100%);fill-opacity:0.96;" d="M 352.703125 165.910156 C 352.703125 167.910156 349.703125 167.910156 349.703125 165.910156 C 349.703125 163.910156 352.703125 163.910156 352.703125 165.910156 "/>
<path style=" stroke:none;fill-rule:nonzero;fill:rgb(100%,100%,100%);fill-opacity:0.96;" d="M 370.546875 171.628906 C 370.546875 173.960938 367.046875 173.960938 367.046875 171.628906 C 367.046875 169.296875 370.546875 169.296875 370.546875 171.628906 "/>
<path style="fill:none;stroke-width:2;stroke-linecap:butt;stroke-linejoin:miter;stroke:rgb(0%,0%,0%);stroke-opacity:0.96;stroke-miterlimit:10;" d="M 352.523438 166.339844 L 360.554688 168.949219 "/>
<path style=" stroke:none;fill-rule:nonzero;fill:rgb(0%,0%,0%);fill-opacity:0.96;" d="M 362.1875 163.917969 L 367.476562 171.199219 L 358.917969 173.980469 "/>
<path style=" stroke:none;fill-rule:nonzero;fill:rgb(100%,100%,100%);fill-opacity:0.96;" d="M 319.367188 190.128906 C 319.367188 192.128906 316.367188 192.128906 316.367188 190.128906 C 316.367188 188.128906 319.367188 188.128906 319.367188 190.128906 "/>
<path style=" stroke:none;fill-rule:nonzero;fill:rgb(100%,100%,100%);fill-opacity:0.96;" d="M 319.617188 220.066406 C 319.617188 222.398438 316.117188 222.398438 316.117188 220.066406 C 316.117188 217.730469 319.617188 217.730469 319.617188 220.066406 "/>
<path style="fill:none;stroke-width:2;stroke-linecap:butt;stroke-linejoin:miter;stroke:rgb(0%,0%,0%);stroke-opacity:0.96;stroke-miterlimit:10;" d="M 317.867188 192.375 L 317.867188 210.539062 "/>
<path style=" stroke:none;fill-rule:nonzero;fill:rgb(0%,0%,0%);fill-opacity:0.96;" d="M 323.160156 210.539062 L 317.867188 217.820312 L 312.578125 210.539062 "/>
<path style=" stroke:none;fill-rule:nonzero;fill:rgb(100%,100%,100%);fill-opacity:0.96;" d="M 319.367188 220.066406 C 319.367188 222.066406 316.367188 222.066406 316.367188 220.066406 C 316.367188 218.066406 319.367188 218.066406 319.367188 220.066406 "/>
<path style=" stroke:none;fill-rule:nonzero;fill:rgb(100%,100%,100%);fill-opacity:0.96;" d="M 365.683594 235.03125 C 365.683594 237.367188 362.183594 237.367188 362.183594 235.03125 C 362.183594 232.699219 365.683594 232.699219 365.683594 235.03125 "/>
<path style="fill:none;stroke-width:2;stroke-linecap:butt;stroke-linejoin:miter;stroke:rgb(0%,0%,0%);stroke-opacity:0.96;stroke-miterlimit:10;" d="M 321.324219 221.1875 L 353.554688 231.660156 "/>
<path style=" stroke:none;fill-rule:nonzero;fill:rgb(0%,0%,0%);fill-opacity:0.96;" d="M 355.191406 226.628906 L 360.480469 233.910156 L 351.921875 236.691406 "/>
<path style=" stroke:none;fill-rule:nonzero;fill:rgb(100%,100%,100%);fill-opacity:0.96;" d="M 370.296875 171.628906 C 370.296875 173.628906 367.296875 173.628906 367.296875 171.628906 C 367.296875 169.628906 370.296875 169.628906 370.296875 171.628906 "/>
<path style=" stroke:none;fill-rule:nonzero;fill:rgb(100%,100%,100%);fill-opacity:0.96;" d="M 383.28125 210.8125 C 383.28125 213.148438 379.78125 213.148438 379.78125 210.8125 C 379.78125 208.480469 383.28125 208.480469 383.28125 210.8125 "/>
<path style="fill:none;stroke-width:2;stroke-linecap:butt;stroke-linejoin:miter;stroke:rgb(0%,0%,0%);stroke-opacity:0.96;stroke-miterlimit:10;" d="M 369.753906 174.566406 L 378.324219 200.949219 "/>
<path style=" stroke:none;fill-rule:nonzero;fill:rgb(0%,0%,0%);fill-opacity:0.96;" d="M 383.355469 199.316406 L 380.574219 207.875 L 373.292969 202.585938 "/>
<path style=" stroke:none;fill-rule:nonzero;fill:rgb(100%,100%,100%);fill-opacity:0.96;" d="M 383.03125 210.8125 C 383.03125 212.8125 380.03125 212.8125 380.03125 210.8125 C 380.03125 208.8125 383.03125 208.8125 383.03125 210.8125 "/>
<path style=" stroke:none;fill-rule:nonzero;fill:rgb(100%,100%,100%);fill-opacity:0.96;" d="M 365.683594 235.03125 C 365.683594 237.367188 362.183594 237.367188 362.183594 235.03125 C 362.183594 232.699219 365.683594 232.699219 365.683594 235.03125 "/>
<path style="fill:none;stroke-width:2;stroke-linecap:butt;stroke-linejoin:miter;stroke:rgb(0%,0%,0%);stroke-opacity:0.96;stroke-miterlimit:10;" d="M 380.210938 212.628906 L 369.535156 227.324219 "/>
<path style=" stroke:none;fill-rule:nonzero;fill:rgb(0%,0%,0%);fill-opacity:0.96;" d="M 373.8125 230.433594 L 365.253906 233.214844 L 365.253906 224.214844 "/>
</g>
</svg>
