<?xml version="1.0" encoding="UTF-8"?>
<svg xmlns="http://www.w3.org/2000/svg" xmlns:xlink="http://www.w3.org/1999/xlink" width="500pt" height="300pt" viewBox="0 0 500 300" version="1.1">
<g id="surface1488">
<rect x="0" y="0" width="500" height="300" style="fill:rgb(100%,100%,100%);fill-opacity:1;stroke:none;"/>
<path style=" stroke:none;fill-rule:nonzero;fill:rgb(22%,59.6%,14.9%);fill-opacity:1;" d="M 312.882812 170.429688 L 298.253906 181.058594 L 307.292969 153.234375 "/>
<path style=" stroke:none;fill-rule:nonzero;fill:rgb(79.6%,23.5%,20%);fill-opacity:1;" d="M 339.628906 151 L 314.582031 169.195312 L 308.671875 151 "/>
<path style=" stroke:none;fill-rule:nonzero;fill:rgb(79.6%,23.5%,20%);fill-opacity:1;" d="M 305.394531 152.617188 L 295.828125 182.058594 L 280.347656 170.8125 "/>
<path style=" stroke:none;fill-rule:nonzero;fill:rgb(25.1%,38.8%,84.7%);fill-opacity:1;" d="M 359.234375 204.109375 L 344.605469 214.734375 L 353.648438 186.914062 "/>
<path style=" stroke:none;fill-rule:nonzero;fill:rgb(79.6%,23.5%,20%);fill-opacity:1;" d="M 369.449219 235.550781 L 344.40625 217.355469 L 359.882812 206.109375 "/>
<path style=" stroke:none;fill-rule:nonzero;fill:rgb(79.6%,23.5%,20%);fill-opacity:1;" d="M 314.058594 195.304688 L 299.429688 184.675781 L 328.683594 184.675781 "/>
<path style=" stroke:none;fill-rule:nonzero;fill:rgb(58.4%,34.5%,69.8%);fill-opacity:1;" d="M 340.804688 214.734375 L 315.757812 196.539062 L 331.238281 185.296875 "/>
<path style=" stroke:none;fill-rule:nonzero;fill:rgb(22%,59.6%,14.9%);fill-opacity:1;" d="M 342.707031 214.117188 L 333.140625 184.675781 L 352.269531 184.675781 "/>
<path style=" stroke:none;fill-rule:nonzero;fill:rgb(58.4%,34.5%,69.8%);fill-opacity:1;" d="M 314.058594 172.050781 L 328.683594 182.675781 L 299.429688 182.675781 "/>
<path style=" stroke:none;fill-rule:nonzero;fill:rgb(22%,59.6%,14.9%);fill-opacity:1;" d="M 340.804688 152.617188 L 331.238281 182.058594 L 315.757812 170.8125 "/>
<path style=" stroke:none;fill-rule:nonzero;fill:rgb(79.6%,23.5%,20%);fill-opacity:1;" d="M 342.707031 153.234375 L 352.269531 182.675781 L 333.140625 182.675781 "/>
<path style=" stroke:none;fill-rule:nonzero;fill:rgb(58.4%,34.5%,69.8%);fill-opacity:1;" d="M 361.136719 203.492188 L 355.550781 186.296875 L 379.21875 203.492188 "/>
<path style=" stroke:none;fill-rule:nonzero;fill:rgb(22%,59.6%,14.9%);fill-opacity:1;" d="M 371.351562 234.933594 L 361.785156 205.492188 L 380.917969 205.492188 "/>
<path style=" stroke:none;fill-rule:nonzero;fill:rgb(79.6%,23.5%,20%);fill-opacity:1;" d="M 392.511719 169.8125 L 374.429688 169.8125 L 398.097656 152.617188 "/>
<path style=" stroke:none;fill-rule:nonzero;fill:rgb(22%,59.6%,14.9%);fill-opacity:1;" d="M 382.292969 201.253906 L 372.730469 171.8125 L 391.859375 171.8125 "/>
<path style=" stroke:none;fill-rule:nonzero;fill:rgb(79.6%,23.5%,20%);fill-opacity:1;" d="M 380.394531 201.871094 L 355.347656 183.675781 L 370.828125 172.429688 "/>
<path style=" stroke:none;fill-rule:nonzero;fill:rgb(22%,59.6%,14.9%);fill-opacity:1;" d="M 378.84375 151 L 396.921875 151 L 373.253906 168.195312 "/>
<path style=" stroke:none;fill-rule:nonzero;fill:rgb(58.4%,34.5%,69.8%);fill-opacity:1;" d="M 345.78125 151 L 376.738281 151 L 370.828125 169.195312 "/>
<path style=" stroke:none;fill-rule:nonzero;fill:rgb(22%,59.6%,14.9%);fill-opacity:1;" d="M 344.605469 152.617188 L 369.652344 170.8125 L 354.171875 182.058594 "/>
<path style=" stroke:none;fill-rule:nonzero;fill:rgb(79.6%,23.5%,20%);fill-opacity:1;" d="M 288.863281 203.492188 L 270.78125 203.492188 L 294.449219 186.296875 "/>
<path style=" stroke:none;fill-rule:nonzero;fill:rgb(22%,59.6%,14.9%);fill-opacity:1;" d="M 278.648438 234.933594 L 269.082031 205.492188 L 288.214844 205.492188 "/>
<path style=" stroke:none;fill-rule:nonzero;fill:rgb(22%,59.6%,14.9%);fill-opacity:1;" d="M 269.605469 201.871094 L 279.171875 172.429688 L 294.652344 183.675781 "/>
<path style=" stroke:none;fill-rule:nonzero;fill:rgb(58.4%,34.5%,69.8%);fill-opacity:1;" d="M 335.214844 237.167969 L 317.136719 237.167969 L 340.804688 219.972656 "/>
<path style=" stroke:none;fill-rule:nonzero;fill:rgb(22%,59.6%,14.9%);fill-opacity:1;" d="M 368.273438 237.167969 L 337.320312 237.167969 L 343.230469 218.972656 "/>
<path style=" stroke:none;fill-rule:nonzero;fill:rgb(22%,59.6%,14.9%);fill-opacity:1;" d="M 312.882812 196.921875 L 307.292969 214.117188 L 298.253906 186.296875 "/>
<path style=" stroke:none;fill-rule:nonzero;fill:rgb(79.6%,23.5%,20%);fill-opacity:1;" d="M 339.628906 216.355469 L 308.671875 216.355469 L 314.582031 198.160156 "/>
<path style=" stroke:none;fill-rule:nonzero;fill:rgb(22%,59.6%,14.9%);fill-opacity:1;" d="M 339.628906 218.355469 L 314.582031 236.550781 L 308.671875 218.355469 "/>
<path style=" stroke:none;fill-rule:nonzero;fill:rgb(58.4%,34.5%,69.8%);fill-opacity:1;" d="M 290.765625 204.109375 L 296.351562 186.914062 L 305.394531 214.734375 "/>
<path style=" stroke:none;fill-rule:nonzero;fill:rgb(79.6%,23.5%,20%);fill-opacity:1;" d="M 280.550781 235.550781 L 290.117188 206.109375 L 305.59375 217.355469 "/>
<path style=" stroke:none;fill-rule:nonzero;fill:rgb(58.4%,34.5%,69.8%);fill-opacity:1;" d="M 281.726562 237.167969 L 306.769531 218.972656 L 312.679688 237.167969 "/>
<path style=" stroke:none;fill-rule:nonzero;fill:rgb(79.6%,23.5%,20%);fill-opacity:1;" d="M 335.214844 239.167969 L 340.804688 256.363281 L 317.136719 239.167969 "/>
<path style=" stroke:none;fill-rule:nonzero;fill:rgb(58.4%,34.5%,69.8%);fill-opacity:1;" d="M 368.273438 239.167969 L 343.230469 257.363281 L 337.320312 239.167969 "/>
<path style=" stroke:none;fill-rule:nonzero;fill:rgb(22%,59.6%,14.9%);fill-opacity:1;" d="M 312.882812 279.414062 L 298.253906 290.039062 L 307.292969 262.21875 "/>
<path style=" stroke:none;fill-rule:nonzero;fill:rgb(79.6%,23.5%,20%);fill-opacity:1;" d="M 339.628906 259.980469 L 314.582031 278.175781 L 308.671875 259.980469 "/>
<path style=" stroke:none;fill-rule:nonzero;fill:rgb(22%,59.6%,14.9%);fill-opacity:1;" d="M 339.628906 257.980469 L 308.671875 257.980469 L 314.582031 239.785156 "/>
<path style=" stroke:none;fill-rule:nonzero;fill:rgb(79.6%,23.5%,20%);fill-opacity:1;" d="M 290.765625 272.226562 L 305.394531 261.597656 L 296.351562 289.421875 "/>
<path style=" stroke:none;fill-rule:nonzero;fill:rgb(22%,59.6%,14.9%);fill-opacity:1;" d="M 280.550781 240.785156 L 305.59375 258.980469 L 290.117188 270.226562 "/>
<path style=" stroke:none;fill-rule:nonzero;fill:rgb(79.6%,23.5%,20%);fill-opacity:1;" d="M 281.726562 239.167969 L 312.679688 239.167969 L 306.769531 257.363281 "/>
<path style=" stroke:none;fill-rule:nonzero;fill:rgb(22%,59.6%,14.9%);fill-opacity:1;" d="M 250 216.117188 L 235.371094 205.492188 L 264.628906 205.492188 "/>
<path style=" stroke:none;fill-rule:nonzero;fill:rgb(58.4%,34.5%,69.8%);fill-opacity:1;" d="M 276.746094 235.550781 L 251.703125 217.355469 L 267.179688 206.109375 "/>
<path style=" stroke:none;fill-rule:nonzero;fill:rgb(79.6%,23.5%,20%);fill-opacity:1;" d="M 264.628906 203.492188 L 233.671875 203.492188 L 239.582031 185.296875 "/>
<path style=" stroke:none;fill-rule:nonzero;fill:rgb(22%,59.6%,14.9%);fill-opacity:1;" d="M 232.292969 270.609375 L 217.667969 259.980469 L 246.921875 259.980469 "/>
<path style=" stroke:none;fill-rule:nonzero;fill:rgb(79.6%,23.5%,20%);fill-opacity:1;" d="M 205.550781 290.039062 L 215.117188 260.597656 L 230.59375 271.84375 "/>
<path style=" stroke:none;fill-rule:nonzero;fill:rgb(22%,59.6%,14.9%);fill-opacity:1;" d="M 226.707031 224.921875 L 232.292969 207.726562 L 241.335938 235.550781 "/>
<path style=" stroke:none;fill-rule:nonzero;fill:rgb(58.4%,34.5%,69.8%);fill-opacity:1;" d="M 216.492188 256.363281 L 226.058594 226.921875 L 241.535156 238.167969 "/>
<path style=" stroke:none;fill-rule:nonzero;fill:rgb(79.6%,23.5%,20%);fill-opacity:1;" d="M 217.667969 257.980469 L 242.710938 239.785156 L 248.625 257.980469 "/>
<path style=" stroke:none;fill-rule:nonzero;fill:rgb(58.4%,34.5%,69.8%);fill-opacity:1;" d="M 248.824219 217.734375 L 243.238281 234.933594 L 234.195312 207.109375 "/>
<path style=" stroke:none;fill-rule:nonzero;fill:rgb(79.6%,23.5%,20%);fill-opacity:1;" d="M 275.570312 237.167969 L 244.613281 237.167969 L 250.527344 218.972656 "/>
<path style=" stroke:none;fill-rule:nonzero;fill:rgb(22%,59.6%,14.9%);fill-opacity:1;" d="M 275.570312 239.167969 L 250.527344 257.363281 L 244.613281 239.167969 "/>
<path style=" stroke:none;fill-rule:nonzero;fill:rgb(79.6%,23.5%,20%);fill-opacity:1;" d="M 233.46875 272.226562 L 248.097656 261.597656 L 239.058594 289.421875 "/>
<path style=" stroke:none;fill-rule:nonzero;fill:rgb(22%,59.6%,14.9%);fill-opacity:1;" d="M 206.726562 291.660156 L 231.769531 273.464844 L 237.679688 291.660156 "/>
<path style=" stroke:none;fill-rule:nonzero;fill:rgb(79.6%,23.5%,20%);fill-opacity:1;" d="M 275.195312 291.660156 L 269.605469 274.464844 L 293.273438 291.660156 "/>
<path style=" stroke:none;fill-rule:nonzero;fill:rgb(22%,59.6%,14.9%);fill-opacity:1;" d="M 242.136719 291.660156 L 267.179688 273.464844 L 273.089844 291.660156 "/>
<path style=" stroke:none;fill-rule:nonzero;fill:rgb(58.4%,34.5%,69.8%);fill-opacity:1;" d="M 240.960938 290.039062 L 250.527344 260.597656 L 266.003906 271.84375 "/>
<path style=" stroke:none;fill-rule:nonzero;fill:rgb(22%,59.6%,14.9%);fill-opacity:1;" d="M 288.863281 272.84375 L 294.449219 290.039062 L 270.78125 272.84375 "/>
<path style=" stroke:none;fill-rule:nonzero;fill:rgb(58.4%,34.5%,69.8%);fill-opacity:1;" d="M 278.648438 241.402344 L 288.214844 270.84375 L 269.082031 270.84375 "/>
<path style=" stroke:none;fill-rule:nonzero;fill:rgb(79.6%,23.5%,20%);fill-opacity:1;" d="M 276.746094 240.785156 L 267.179688 270.226562 L 251.703125 258.980469 "/>
<path style=" stroke:none;fill-rule:nonzero;fill:rgb(58.4%,34.5%,69.8%);fill-opacity:1;" d="M 211.136719 203.492188 L 205.550781 186.296875 L 229.21875 203.492188 "/>
<path style=" stroke:none;fill-rule:nonzero;fill:rgb(79.6%,23.5%,20%);fill-opacity:1;" d="M 178.078125 203.492188 L 203.121094 185.296875 L 209.035156 203.492188 "/>
<path style=" stroke:none;fill-rule:nonzero;fill:rgb(22%,59.6%,14.9%);fill-opacity:1;" d="M 206.726562 184.675781 L 237.679688 184.675781 L 231.769531 202.871094 "/>
<path style=" stroke:none;fill-rule:nonzero;fill:rgb(22%,59.6%,14.9%);fill-opacity:1;" d="M 193.433594 257.980469 L 187.84375 240.785156 L 211.511719 257.980469 "/>
<path style=" stroke:none;fill-rule:nonzero;fill:rgb(58.4%,34.5%,69.8%);fill-opacity:1;" d="M 203.648438 289.421875 L 194.082031 259.980469 L 213.214844 259.980469 "/>
<path style=" stroke:none;fill-rule:nonzero;fill:rgb(79.6%,23.5%,20%);fill-opacity:1;" d="M 224.804688 224.304688 L 206.726562 224.304688 L 230.394531 207.109375 "/>
<path style=" stroke:none;fill-rule:nonzero;fill:rgb(22%,59.6%,14.9%);fill-opacity:1;" d="M 214.589844 255.746094 L 205.023438 226.304688 L 224.15625 226.304688 "/>
<path style=" stroke:none;fill-rule:nonzero;fill:rgb(79.6%,23.5%,20%);fill-opacity:1;" d="M 212.6875 256.363281 L 187.644531 238.167969 L 203.121094 226.921875 "/>
<path style=" stroke:none;fill-rule:nonzero;fill:rgb(22%,59.6%,14.9%);fill-opacity:1;" d="M 211.136719 205.492188 L 229.21875 205.492188 L 205.550781 222.6875 "/>
<path style=" stroke:none;fill-rule:nonzero;fill:rgb(58.4%,34.5%,69.8%);fill-opacity:1;" d="M 178.078125 205.492188 L 209.035156 205.492188 L 203.121094 223.6875 "/>
<path style=" stroke:none;fill-rule:nonzero;fill:rgb(22%,59.6%,14.9%);fill-opacity:1;" d="M 176.902344 207.109375 L 201.945312 225.304688 L 186.46875 236.550781 "/>
<path style=" stroke:none;fill-rule:nonzero;fill:rgb(79.6%,23.5%,20%);fill-opacity:1;" d="M 191.53125 258.597656 L 176.902344 269.226562 L 185.941406 241.402344 "/>
<path style=" stroke:none;fill-rule:nonzero;fill:rgb(22%,59.6%,14.9%);fill-opacity:1;" d="M 201.746094 290.039062 L 176.703125 271.84375 L 192.179688 260.597656 "/>
<path style=" stroke:none;fill-rule:nonzero;fill:rgb(79.6%,23.5%,20%);fill-opacity:1;" d="M 146.351562 249.796875 L 131.726562 239.167969 L 160.980469 239.167969 "/>
<path style=" stroke:none;fill-rule:nonzero;fill:rgb(58.4%,34.5%,69.8%);fill-opacity:1;" d="M 173.097656 269.226562 L 148.054688 251.03125 L 163.53125 239.785156 "/>
<path style=" stroke:none;fill-rule:nonzero;fill:rgb(22%,59.6%,14.9%);fill-opacity:1;" d="M 175 268.609375 L 165.433594 239.167969 L 184.566406 239.167969 "/>
<path style=" stroke:none;fill-rule:nonzero;fill:rgb(22%,59.6%,14.9%);fill-opacity:1;" d="M 146.351562 226.539062 L 160.980469 237.167969 L 131.726562 237.167969 "/>
<path style=" stroke:none;fill-rule:nonzero;fill:rgb(58.4%,34.5%,69.8%);fill-opacity:1;" d="M 173.097656 207.109375 L 163.53125 236.550781 L 148.054688 225.304688 "/>
<path style=" stroke:none;fill-rule:nonzero;fill:rgb(79.6%,23.5%,20%);fill-opacity:1;" d="M 175 207.726562 L 184.566406 237.167969 L 165.433594 237.167969 "/>
<path style=" stroke:none;fill-rule:nonzero;fill:rgb(58.4%,34.5%,69.8%);fill-opacity:1;" d="M 187.117188 170.429688 L 192.707031 153.234375 L 201.746094 181.058594 "/>
<path style=" stroke:none;fill-rule:nonzero;fill:rgb(22%,59.6%,14.9%);fill-opacity:1;" d="M 176.902344 201.871094 L 186.46875 172.429688 L 201.945312 183.675781 "/>
<path style=" stroke:none;fill-rule:nonzero;fill:rgb(79.6%,23.5%,20%);fill-opacity:1;" d="M 203.648438 180.441406 L 194.082031 151 L 213.214844 151 "/>
<path style=" stroke:none;fill-rule:nonzero;fill:rgb(58.4%,34.5%,69.8%);fill-opacity:1;" d="M 129.824219 170.429688 L 135.410156 153.234375 L 144.449219 181.058594 "/>
<path style=" stroke:none;fill-rule:nonzero;fill:rgb(79.6%,23.5%,20%);fill-opacity:1;" d="M 103.078125 151 L 134.035156 151 L 128.121094 169.195312 "/>
<path style=" stroke:none;fill-rule:nonzero;fill:rgb(22%,59.6%,14.9%);fill-opacity:1;" d="M 171.546875 151 L 189.628906 151 L 165.960938 168.195312 "/>
<path style=" stroke:none;fill-rule:nonzero;fill:rgb(79.6%,23.5%,20%);fill-opacity:1;" d="M 138.488281 151 L 169.445312 151 L 163.53125 169.195312 "/>
<path style=" stroke:none;fill-rule:nonzero;fill:rgb(22%,59.6%,14.9%);fill-opacity:1;" d="M 137.3125 152.617188 L 162.355469 170.8125 L 146.878906 182.058594 "/>
<path style=" stroke:none;fill-rule:nonzero;fill:rgb(79.6%,23.5%,20%);fill-opacity:1;" d="M 185.214844 169.8125 L 167.136719 169.8125 L 190.804688 152.617188 "/>
<path style=" stroke:none;fill-rule:nonzero;fill:rgb(25.1%,38.8%,84.7%);fill-opacity:1;" d="M 175 201.253906 L 165.433594 171.8125 L 184.566406 171.8125 "/>
<path style=" stroke:none;fill-rule:nonzero;fill:rgb(58.4%,34.5%,69.8%);fill-opacity:1;" d="M 173.097656 201.871094 L 148.054688 183.675781 L 163.53125 172.429688 "/>
<path style=" stroke:none;fill-rule:nonzero;fill:rgb(79.6%,23.5%,20%);fill-opacity:1;" d="M 128.648438 172.050781 L 143.273438 182.675781 L 114.019531 182.675781 "/>
<path style=" stroke:none;fill-rule:nonzero;fill:rgb(22%,59.6%,14.9%);fill-opacity:1;" d="M 101.902344 152.617188 L 126.945312 170.8125 L 111.46875 182.058594 "/>
<path style=" stroke:none;fill-rule:nonzero;fill:rgb(22%,59.6%,14.9%);fill-opacity:1;" d="M 123.058594 217.734375 L 137.6875 207.109375 L 128.648438 234.933594 "/>
<path style=" stroke:none;fill-rule:nonzero;fill:rgb(79.6%,23.5%,20%);fill-opacity:1;" d="M 112.84375 186.296875 L 137.886719 204.492188 L 122.410156 215.734375 "/>
<path style=" stroke:none;fill-rule:nonzero;fill:rgb(22%,59.6%,14.9%);fill-opacity:1;" d="M 114.019531 184.675781 L 144.976562 184.675781 L 139.0625 202.871094 "/>
<path style=" stroke:none;fill-rule:nonzero;fill:rgb(79.6%,23.5%,20%);fill-opacity:1;" d="M 145.175781 224.921875 L 130.550781 235.550781 L 139.589844 207.726562 "/>
<path style=" stroke:none;fill-rule:nonzero;fill:rgb(22%,59.6%,14.9%);fill-opacity:1;" d="M 171.921875 205.492188 L 146.878906 223.6875 L 140.964844 205.492188 "/>
<path style=" stroke:none;fill-rule:nonzero;fill:rgb(79.6%,23.5%,20%);fill-opacity:1;" d="M 171.921875 203.492188 L 140.964844 203.492188 L 146.878906 185.296875 "/>
<path style=" stroke:none;fill-rule:nonzero;fill:rgb(79.6%,23.5%,20%);fill-opacity:1;" d="M 187.117188 129.570312 L 201.746094 118.941406 L 192.707031 146.765625 "/>
<path style=" stroke:none;fill-rule:nonzero;fill:rgb(58.4%,34.5%,69.8%);fill-opacity:1;" d="M 176.902344 98.128906 L 201.945312 116.324219 L 186.46875 127.570312 "/>
<path style=" stroke:none;fill-rule:nonzero;fill:rgb(22%,59.6%,14.9%);fill-opacity:1;" d="M 203.648438 119.558594 L 213.214844 149 L 194.082031 149 "/>
<path style=" stroke:none;fill-rule:nonzero;fill:rgb(58.4%,34.5%,69.8%);fill-opacity:1;" d="M 129.824219 129.570312 L 144.449219 118.941406 L 135.410156 146.765625 "/>
<path style=" stroke:none;fill-rule:nonzero;fill:rgb(22%,59.6%,14.9%);fill-opacity:1;" d="M 103.078125 149 L 128.121094 130.804688 L 134.035156 149 "/>
<path style=" stroke:none;fill-rule:nonzero;fill:rgb(79.6%,23.5%,20%);fill-opacity:1;" d="M 171.546875 149 L 165.960938 131.804688 L 189.628906 149 "/>
<path style=" stroke:none;fill-rule:nonzero;fill:rgb(22%,59.6%,14.9%);fill-opacity:1;" d="M 138.488281 149 L 163.53125 130.804688 L 169.445312 149 "/>
<path style=" stroke:none;fill-rule:nonzero;fill:rgb(79.6%,23.5%,20%);fill-opacity:1;" d="M 137.3125 147.382812 L 146.878906 117.941406 L 162.355469 129.1875 "/>
<path style=" stroke:none;fill-rule:nonzero;fill:rgb(22%,59.6%,14.9%);fill-opacity:1;" d="M 185.214844 130.1875 L 190.804688 147.382812 L 167.136719 130.1875 "/>
<path style=" stroke:none;fill-rule:nonzero;fill:rgb(79.6%,23.5%,20%);fill-opacity:1;" d="M 175 98.746094 L 184.566406 128.1875 L 165.433594 128.1875 "/>
<path style=" stroke:none;fill-rule:nonzero;fill:rgb(22%,59.6%,14.9%);fill-opacity:1;" d="M 173.097656 98.128906 L 163.53125 127.570312 L 148.054688 116.324219 "/>
<path style=" stroke:none;fill-rule:nonzero;fill:rgb(25.1%,38.8%,84.7%);fill-opacity:1;" d="M 128.648438 127.949219 L 114.019531 117.324219 L 143.273438 117.324219 "/>
<path style=" stroke:none;fill-rule:nonzero;fill:rgb(79.6%,23.5%,20%);fill-opacity:1;" d="M 101.902344 147.382812 L 111.46875 117.941406 L 126.945312 129.1875 "/>
<path style=" stroke:none;fill-rule:nonzero;fill:rgb(22%,59.6%,14.9%);fill-opacity:1;" d="M 123.058594 82.265625 L 128.648438 65.066406 L 137.6875 92.890625 "/>
<path style=" stroke:none;fill-rule:nonzero;fill:rgb(79.6%,23.5%,20%);fill-opacity:1;" d="M 112.84375 113.703125 L 122.410156 84.265625 L 137.886719 95.507812 "/>
<path style=" stroke:none;fill-rule:nonzero;fill:rgb(22%,59.6%,14.9%);fill-opacity:1;" d="M 114.019531 115.324219 L 139.0625 97.128906 L 144.976562 115.324219 "/>
<path style=" stroke:none;fill-rule:nonzero;fill:rgb(58.4%,34.5%,69.8%);fill-opacity:1;" d="M 145.175781 75.078125 L 139.589844 92.273438 L 130.550781 64.449219 "/>
<path style=" stroke:none;fill-rule:nonzero;fill:rgb(22%,59.6%,14.9%);fill-opacity:1;" d="M 171.921875 94.507812 L 140.964844 94.507812 L 146.878906 76.3125 "/>
<path style=" stroke:none;fill-rule:nonzero;fill:rgb(79.6%,23.5%,20%);fill-opacity:1;" d="M 171.921875 96.507812 L 146.878906 114.703125 L 140.964844 96.507812 "/>
<path style=" stroke:none;fill-rule:nonzero;fill:rgb(79.6%,23.5%,20%);fill-opacity:1;" d="M 211.136719 96.507812 L 229.21875 96.507812 L 205.550781 113.703125 "/>
<path style=" stroke:none;fill-rule:nonzero;fill:rgb(22%,59.6%,14.9%);fill-opacity:1;" d="M 178.078125 96.507812 L 209.035156 96.507812 L 203.121094 114.703125 "/>
<path style=" stroke:none;fill-rule:nonzero;fill:rgb(22%,59.6%,14.9%);fill-opacity:1;" d="M 206.726562 115.324219 L 231.769531 97.128906 L 237.679688 115.324219 "/>
<path style=" stroke:none;fill-rule:nonzero;fill:rgb(22%,59.6%,14.9%);fill-opacity:1;" d="M 193.433594 42.019531 L 211.511719 42.019531 L 187.84375 59.214844 "/>
<path style=" stroke:none;fill-rule:nonzero;fill:rgb(58.4%,34.5%,69.8%);fill-opacity:1;" d="M 203.648438 10.578125 L 213.214844 40.019531 L 194.082031 40.019531 "/>
<path style=" stroke:none;fill-rule:nonzero;fill:rgb(58.4%,34.5%,69.8%);fill-opacity:1;" d="M 224.804688 75.695312 L 230.394531 92.890625 L 206.726562 75.695312 "/>
<path style=" stroke:none;fill-rule:nonzero;fill:rgb(25.1%,38.8%,84.7%);fill-opacity:1;" d="M 214.589844 44.253906 L 224.15625 73.695312 L 205.023438 73.695312 "/>
<path style=" stroke:none;fill-rule:nonzero;fill:rgb(79.6%,23.5%,20%);fill-opacity:1;" d="M 212.6875 43.636719 L 203.121094 73.078125 L 187.644531 61.832031 "/>
<path style=" stroke:none;fill-rule:nonzero;fill:rgb(22%,59.6%,14.9%);fill-opacity:1;" d="M 211.136719 94.507812 L 205.550781 77.3125 L 229.21875 94.507812 "/>
<path style=" stroke:none;fill-rule:nonzero;fill:rgb(79.6%,23.5%,20%);fill-opacity:1;" d="M 178.078125 94.507812 L 203.121094 76.3125 L 209.035156 94.507812 "/>
<path style=" stroke:none;fill-rule:nonzero;fill:rgb(22%,59.6%,14.9%);fill-opacity:1;" d="M 176.902344 92.890625 L 186.46875 63.449219 L 201.945312 74.695312 "/>
<path style=" stroke:none;fill-rule:nonzero;fill:rgb(79.6%,23.5%,20%);fill-opacity:1;" d="M 191.53125 41.402344 L 185.941406 58.597656 L 176.902344 30.773438 "/>
<path style=" stroke:none;fill-rule:nonzero;fill:rgb(22%,59.6%,14.9%);fill-opacity:1;" d="M 201.746094 9.960938 L 192.179688 39.402344 L 176.703125 28.15625 "/>
<path style=" stroke:none;fill-rule:nonzero;fill:rgb(22%,59.6%,14.9%);fill-opacity:1;" d="M 146.351562 50.203125 L 160.980469 60.832031 L 131.726562 60.832031 "/>
<path style=" stroke:none;fill-rule:nonzero;fill:rgb(79.6%,23.5%,20%);fill-opacity:1;" d="M 173.097656 30.773438 L 163.53125 60.214844 L 148.054688 48.96875 "/>
<path style=" stroke:none;fill-rule:nonzero;fill:rgb(22%,59.6%,14.9%);fill-opacity:1;" d="M 175 31.390625 L 184.566406 60.832031 L 165.433594 60.832031 "/>
<path style=" stroke:none;fill-rule:nonzero;fill:rgb(79.6%,23.5%,20%);fill-opacity:1;" d="M 146.351562 73.460938 L 131.726562 62.832031 L 160.980469 62.832031 "/>
<path style=" stroke:none;fill-rule:nonzero;fill:rgb(58.4%,34.5%,69.8%);fill-opacity:1;" d="M 173.097656 92.890625 L 148.054688 74.695312 L 163.53125 63.449219 "/>
<path style=" stroke:none;fill-rule:nonzero;fill:rgb(79.6%,23.5%,20%);fill-opacity:1;" d="M 175 92.273438 L 165.433594 62.832031 L 184.566406 62.832031 "/>
<path style=" stroke:none;fill-rule:nonzero;fill:rgb(79.6%,23.5%,20%);fill-opacity:1;" d="M 250 83.882812 L 264.628906 94.507812 L 235.371094 94.507812 "/>
<path style=" stroke:none;fill-rule:nonzero;fill:rgb(22%,59.6%,14.9%);fill-opacity:1;" d="M 276.746094 64.449219 L 267.179688 93.890625 L 251.703125 82.644531 "/>
<path style=" stroke:none;fill-rule:nonzero;fill:rgb(58.4%,34.5%,69.8%);fill-opacity:1;" d="M 264.628906 96.507812 L 239.582031 114.703125 L 233.671875 96.507812 "/>
<path style=" stroke:none;fill-rule:nonzero;fill:rgb(22%,59.6%,14.9%);fill-opacity:1;" d="M 232.292969 29.390625 L 246.921875 40.019531 L 217.667969 40.019531 "/>
<path style=" stroke:none;fill-rule:nonzero;fill:rgb(79.6%,23.5%,20%);fill-opacity:1;" d="M 205.550781 9.960938 L 230.59375 28.15625 L 215.117188 39.402344 "/>
<path style=" stroke:none;fill-rule:nonzero;fill:rgb(79.6%,23.5%,20%);fill-opacity:1;" d="M 226.707031 75.078125 L 241.335938 64.449219 L 232.292969 92.273438 "/>
<path style=" stroke:none;fill-rule:nonzero;fill:rgb(22%,59.6%,14.9%);fill-opacity:1;" d="M 216.492188 43.636719 L 241.535156 61.832031 L 226.058594 73.078125 "/>
<path style=" stroke:none;fill-rule:nonzero;fill:rgb(58.4%,34.5%,69.8%);fill-opacity:1;" d="M 217.667969 42.019531 L 248.625 42.019531 L 242.710938 60.214844 "/>
<path style=" stroke:none;fill-rule:nonzero;fill:rgb(22%,59.6%,14.9%);fill-opacity:1;" d="M 248.824219 82.265625 L 234.195312 92.890625 L 243.238281 65.066406 "/>
<path style=" stroke:none;fill-rule:nonzero;fill:rgb(58.4%,34.5%,69.8%);fill-opacity:1;" d="M 275.570312 62.832031 L 250.527344 81.027344 L 244.613281 62.832031 "/>
<path style=" stroke:none;fill-rule:nonzero;fill:rgb(79.6%,23.5%,20%);fill-opacity:1;" d="M 275.570312 60.832031 L 244.613281 60.832031 L 250.527344 42.636719 "/>
<path style=" stroke:none;fill-rule:nonzero;fill:rgb(79.6%,23.5%,20%);fill-opacity:1;" d="M 233.46875 27.773438 L 239.058594 10.578125 L 248.097656 38.402344 "/>
<path style=" stroke:none;fill-rule:nonzero;fill:rgb(22%,59.6%,14.9%);fill-opacity:1;" d="M 206.726562 8.339844 L 237.679688 8.339844 L 231.769531 26.535156 "/>
<path style=" stroke:none;fill-rule:nonzero;fill:rgb(79.6%,23.5%,20%);fill-opacity:1;" d="M 275.195312 8.339844 L 293.273438 8.339844 L 269.605469 25.535156 "/>
<path style=" stroke:none;fill-rule:nonzero;fill:rgb(22%,59.6%,14.9%);fill-opacity:1;" d="M 242.136719 8.339844 L 273.089844 8.339844 L 267.179688 26.535156 "/>
<path style=" stroke:none;fill-rule:nonzero;fill:rgb(58.4%,34.5%,69.8%);fill-opacity:1;" d="M 240.960938 9.960938 L 266.003906 28.15625 L 250.527344 39.402344 "/>
<path style=" stroke:none;fill-rule:nonzero;fill:rgb(58.4%,34.5%,69.8%);fill-opacity:1;" d="M 288.863281 27.15625 L 270.78125 27.15625 L 294.449219 9.960938 "/>
<path style=" stroke:none;fill-rule:nonzero;fill:rgb(79.6%,23.5%,20%);fill-opacity:1;" d="M 278.648438 58.597656 L 269.082031 29.15625 L 288.214844 29.15625 "/>
<path style=" stroke:none;fill-rule:nonzero;fill:rgb(22%,59.6%,14.9%);fill-opacity:1;" d="M 276.746094 59.214844 L 251.703125 41.019531 L 267.179688 29.773438 "/>
<path style=" stroke:none;fill-rule:nonzero;fill:rgb(22%,59.6%,14.9%);fill-opacity:1;" d="M 288.863281 96.507812 L 294.449219 113.703125 L 270.78125 96.507812 "/>
<path style=" stroke:none;fill-rule:nonzero;fill:rgb(79.6%,23.5%,20%);fill-opacity:1;" d="M 278.648438 65.066406 L 288.214844 94.507812 L 269.082031 94.507812 "/>
<path style=" stroke:none;fill-rule:nonzero;fill:rgb(79.6%,23.5%,20%);fill-opacity:1;" d="M 269.605469 98.128906 L 294.652344 116.324219 L 279.171875 127.570312 "/>
<path style=" stroke:none;fill-rule:nonzero;fill:rgb(79.6%,23.5%,20%);fill-opacity:1;" d="M 335.214844 62.832031 L 340.804688 80.027344 L 317.136719 62.832031 "/>
<path style=" stroke:none;fill-rule:nonzero;fill:rgb(22%,59.6%,14.9%);fill-opacity:1;" d="M 368.273438 62.832031 L 343.230469 81.027344 L 337.320312 62.832031 "/>
<path style=" stroke:none;fill-rule:nonzero;fill:rgb(22%,59.6%,14.9%);fill-opacity:1;" d="M 312.882812 103.078125 L 298.253906 113.703125 L 307.292969 85.882812 "/>
<path style=" stroke:none;fill-rule:nonzero;fill:rgb(79.6%,23.5%,20%);fill-opacity:1;" d="M 339.628906 83.644531 L 314.582031 101.839844 L 308.671875 83.644531 "/>
<path style=" stroke:none;fill-rule:nonzero;fill:rgb(22%,59.6%,14.9%);fill-opacity:1;" d="M 339.628906 81.644531 L 308.671875 81.644531 L 314.582031 63.449219 "/>
<path style=" stroke:none;fill-rule:nonzero;fill:rgb(79.6%,23.5%,20%);fill-opacity:1;" d="M 290.765625 95.890625 L 305.394531 85.265625 L 296.351562 113.085938 "/>
<path style=" stroke:none;fill-rule:nonzero;fill:rgb(22%,59.6%,14.9%);fill-opacity:1;" d="M 280.550781 64.449219 L 305.59375 82.644531 L 290.117188 93.890625 "/>
<path style=" stroke:none;fill-rule:nonzero;fill:rgb(79.6%,23.5%,20%);fill-opacity:1;" d="M 281.726562 62.832031 L 312.679688 62.832031 L 306.769531 81.027344 "/>
<path style=" stroke:none;fill-rule:nonzero;fill:rgb(22%,59.6%,14.9%);fill-opacity:1;" d="M 335.214844 60.832031 L 317.136719 60.832031 L 340.804688 43.636719 "/>
<path style=" stroke:none;fill-rule:nonzero;fill:rgb(79.6%,23.5%,20%);fill-opacity:1;" d="M 368.273438 60.832031 L 337.320312 60.832031 L 343.230469 42.636719 "/>
<path style=" stroke:none;fill-rule:nonzero;fill:rgb(79.6%,23.5%,20%);fill-opacity:1;" d="M 312.882812 20.585938 L 307.292969 37.78125 L 298.253906 9.960938 "/>
<path style=" stroke:none;fill-rule:nonzero;fill:rgb(22%,59.6%,14.9%);fill-opacity:1;" d="M 339.628906 40.019531 L 308.671875 40.019531 L 314.582031 21.824219 "/>
<path style=" stroke:none;fill-rule:nonzero;fill:rgb(79.6%,23.5%,20%);fill-opacity:1;" d="M 339.628906 42.019531 L 314.582031 60.214844 L 308.671875 42.019531 "/>
<path style=" stroke:none;fill-rule:nonzero;fill:rgb(22%,59.6%,14.9%);fill-opacity:1;" d="M 290.765625 27.773438 L 296.351562 10.578125 L 305.394531 38.402344 "/>
<path style=" stroke:none;fill-rule:nonzero;fill:rgb(58.4%,34.5%,69.8%);fill-opacity:1;" d="M 280.550781 59.214844 L 290.117188 29.773438 L 305.59375 41.019531 "/>
<path style=" stroke:none;fill-rule:nonzero;fill:rgb(22%,59.6%,14.9%);fill-opacity:1;" d="M 281.726562 60.832031 L 306.769531 42.636719 L 312.679688 60.832031 "/>
<path style=" stroke:none;fill-rule:nonzero;fill:rgb(79.6%,23.5%,20%);fill-opacity:1;" d="M 312.882812 129.570312 L 307.292969 146.765625 L 298.253906 118.941406 "/>
<path style=" stroke:none;fill-rule:nonzero;fill:rgb(58.4%,34.5%,69.8%);fill-opacity:1;" d="M 339.628906 149 L 308.671875 149 L 314.582031 130.804688 "/>
<path style=" stroke:none;fill-rule:nonzero;fill:rgb(22%,59.6%,14.9%);fill-opacity:1;" d="M 305.394531 147.382812 L 280.347656 129.1875 L 295.828125 117.941406 "/>
<path style=" stroke:none;fill-rule:nonzero;fill:rgb(79.6%,23.5%,20%);fill-opacity:1;" d="M 359.234375 95.890625 L 353.648438 113.085938 L 344.605469 85.265625 "/>
<path style=" stroke:none;fill-rule:nonzero;fill:rgb(58.4%,34.5%,69.8%);fill-opacity:1;" d="M 369.449219 64.449219 L 359.882812 93.890625 L 344.40625 82.644531 "/>
<path style=" stroke:none;fill-rule:nonzero;fill:rgb(79.6%,23.5%,20%);fill-opacity:1;" d="M 314.058594 104.695312 L 328.683594 115.324219 L 299.429688 115.324219 "/>
<path style=" stroke:none;fill-rule:nonzero;fill:rgb(58.4%,34.5%,69.8%);fill-opacity:1;" d="M 340.804688 85.265625 L 331.238281 114.703125 L 315.757812 103.460938 "/>
<path style=" stroke:none;fill-rule:nonzero;fill:rgb(22%,59.6%,14.9%);fill-opacity:1;" d="M 342.707031 85.882812 L 352.269531 115.324219 L 333.140625 115.324219 "/>
<path style=" stroke:none;fill-rule:nonzero;fill:rgb(58.4%,34.5%,69.8%);fill-opacity:1;" d="M 314.058594 127.949219 L 299.429688 117.324219 L 328.683594 117.324219 "/>
<path style=" stroke:none;fill-rule:nonzero;fill:rgb(22%,59.6%,14.9%);fill-opacity:1;" d="M 340.804688 147.382812 L 315.757812 129.1875 L 331.238281 117.941406 "/>
<path style=" stroke:none;fill-rule:nonzero;fill:rgb(79.6%,23.5%,20%);fill-opacity:1;" d="M 342.707031 146.765625 L 333.140625 117.324219 L 352.269531 117.324219 "/>
<path style=" stroke:none;fill-rule:nonzero;fill:rgb(22%,59.6%,14.9%);fill-opacity:1;" d="M 361.136719 96.507812 L 379.21875 96.507812 L 355.550781 113.703125 "/>
<path style=" stroke:none;fill-rule:nonzero;fill:rgb(79.6%,23.5%,20%);fill-opacity:1;" d="M 371.351562 65.066406 L 380.917969 94.507812 L 361.785156 94.507812 "/>
<path style=" stroke:none;fill-rule:nonzero;fill:rgb(22%,59.6%,14.9%);fill-opacity:1;" d="M 392.511719 130.1875 L 398.097656 147.382812 L 374.429688 130.1875 "/>
<path style=" stroke:none;fill-rule:nonzero;fill:rgb(58.4%,34.5%,69.8%);fill-opacity:1;" d="M 382.292969 98.746094 L 391.859375 128.1875 L 372.730469 128.1875 "/>
<path style=" stroke:none;fill-rule:nonzero;fill:rgb(79.6%,23.5%,20%);fill-opacity:1;" d="M 380.394531 98.128906 L 370.828125 127.570312 L 355.347656 116.324219 "/>
<path style=" stroke:none;fill-rule:nonzero;fill:rgb(58.4%,34.5%,69.8%);fill-opacity:1;" d="M 378.84375 149 L 373.253906 131.804688 L 396.921875 149 "/>
<path style=" stroke:none;fill-rule:nonzero;fill:rgb(79.6%,23.5%,20%);fill-opacity:1;" d="M 345.78125 149 L 370.828125 130.804688 L 376.738281 149 "/>
<path style=" stroke:none;fill-rule:nonzero;fill:rgb(22%,59.6%,14.9%);fill-opacity:1;" d="M 344.605469 147.382812 L 354.171875 117.941406 L 369.652344 129.1875 "/>
</g>
</svg>
