<?xml version="1.0" encoding="UTF-8"?>
<svg xmlns="http://www.w3.org/2000/svg" xmlns:xlink="http://www.w3.org/1999/xlink" width="500pt" height="300pt" viewBox="0 0 500 300" version="1.1">
<g id="surface1468">
<rect x="0" y="0" width="500" height="300" style="fill:rgb(100%,100%,100%);fill-opacity:1;stroke:none;"/>
<path style="fill:none;stroke-width:2;stroke-linecap:butt;stroke-linejoin:miter;stroke:rgb(1.117988%,71.999033%,68.630798%);stroke-opacity:1;stroke-miterlimit:10;" d="M 371.351562 238.167969 L 250 150 L 400 150 Z M 371.351562 238.167969 "/>
<path style="fill:none;stroke-width:2;stroke-linecap:butt;stroke-linejoin:miter;stroke:rgb(10.431709%,55.291989%,18.836461%);stroke-opacity:1;stroke-miterlimit:10;" d="M 371.351562 238.167969 L 250 150 L 296.351562 292.660156 Z M 371.351562 238.167969 "/>
<path style="fill:none;stroke-width:2;stroke-linecap:butt;stroke-linejoin:miter;stroke:rgb(33.161522%,15.951143%,91.668097%);stroke-opacity:1;stroke-miterlimit:10;" d="M 203.648438 292.660156 L 250 150 L 296.351562 292.660156 Z M 203.648438 292.660156 "/>
<path style="fill:none;stroke-width:2;stroke-linecap:butt;stroke-linejoin:miter;stroke:rgb(64.549599%,19.875934%,8.500177%);stroke-opacity:1;stroke-miterlimit:10;" d="M 203.648438 292.660156 L 250 150 L 128.648438 238.167969 Z M 203.648438 292.660156 "/>
<path style="fill:none;stroke-width:2;stroke-linecap:butt;stroke-linejoin:miter;stroke:rgb(46.24476%,78.663347%,30.94085%);stroke-opacity:1;stroke-miterlimit:10;" d="M 100 150 L 250 150 L 128.648438 238.167969 Z M 100 150 "/>
<path style="fill:none;stroke-width:2;stroke-linecap:butt;stroke-linejoin:miter;stroke:rgb(82.720226%,7.829504%,22.289265%);stroke-opacity:1;stroke-miterlimit:10;" d="M 100 150 L 250 150 L 128.648438 61.832031 Z M 100 150 "/>
<path style="fill:none;stroke-width:2;stroke-linecap:butt;stroke-linejoin:miter;stroke:rgb(63.730798%,55.104117%,24.867626%);stroke-opacity:1;stroke-miterlimit:10;" d="M 203.648438 7.339844 L 250 150 L 128.648438 61.832031 Z M 203.648438 7.339844 "/>
<path style="fill:none;stroke-width:2;stroke-linecap:butt;stroke-linejoin:miter;stroke:rgb(38.59595%,22.435365%,17.625316%);stroke-opacity:1;stroke-miterlimit:10;" d="M 203.648438 7.339844 L 250 150 L 296.351562 7.339844 Z M 203.648438 7.339844 "/>
<path style="fill:none;stroke-width:2;stroke-linecap:butt;stroke-linejoin:miter;stroke:rgb(82.484172%,87.408571%,0.510247%);stroke-opacity:1;stroke-miterlimit:10;" d="M 371.351562 61.832031 L 250 150 L 296.351562 7.339844 Z M 371.351562 61.832031 "/>
<path style="fill:none;stroke-width:2;stroke-linecap:butt;stroke-linejoin:miter;stroke:rgb(49.521662%,51.477679%,64.396067%);stroke-opacity:1;stroke-miterlimit:10;" d="M 371.351562 61.832031 L 250 150 L 400 150 Z M 371.351562 61.832031 "/>
</g>
</svg>
