<?xml version="1.0" encoding="UTF-8" standalone="no"?>
<!DOCTYPE svg PUBLIC "-//W3C//DTD SVG 1.1//EN" "http://www.w3.org/Graphics/SVG/1.1/DTD/svg11.dtd">
<svg width="100%" height="100%" viewBox="0 0 700 400" version="1.1" xmlns="http://www.w3.org/2000/svg" xmlns:xlink="http://www.w3.org/1999/xlink" xml:space="preserve" xmlns:serif="http://www.serif.com/" style="fill-rule:evenodd;clip-rule:evenodd;stroke-miterlimit:10;">
    <g id="surface5946">
        <path d="M170,112.68L108.195,302.891L231.805,302.891L170,112.68Z" style="fill:rgb(254,69,0);fill-opacity:0.9;fill-rule:nonzero;stroke:rgb(254,69,0);stroke-opacity:0.9;stroke-width:0.5px;"/>
        <path d="M440.531,306.813L340.531,234.156L316.922,306.813L440.531,306.813Z" style="fill:rgb(254,69,0);fill-opacity:0.9;fill-rule:nonzero;stroke:rgb(254,69,0);stroke-opacity:0.9;stroke-width:0.5px;"/>
        <path d="M342.59,227.816L442.59,300.469L380.785,110.258L342.59,227.816Z" style="fill:rgb(127,0,127);fill-opacity:0.9;fill-rule:nonzero;stroke:rgb(127,0,127);stroke-opacity:0.9;stroke-width:0.5px;"/>
        <path d="M524.863,305.313L586.668,260.41L548.469,232.66L524.863,305.313Z" style="fill:rgb(254,69,0);fill-opacity:0.9;fill-rule:nonzero;stroke:rgb(254,69,0);stroke-opacity:0.9;stroke-width:0.5px;"/>
        <path d="M590,262.832L528.195,307.734L651.805,307.734L590,262.832Z" style="fill:rgb(127,0,127);fill-opacity:0.9;fill-rule:nonzero;stroke:rgb(127,0,127);stroke-opacity:0.9;stroke-width:0.5px;"/>
        <path d="M613.121,183.84L589.516,256.492L551.316,228.742L613.121,183.84Z" style="fill:rgb(254,69,0);fill-opacity:0.9;fill-rule:nonzero;stroke:rgb(254,69,0);stroke-opacity:0.9;stroke-width:0.5px;"/>
        <path d="M613.121,178.996L551.316,223.898L589.516,106.34L613.121,178.996Z" style="fill:rgb(127,0,127);fill-opacity:0.9;fill-rule:nonzero;stroke:rgb(127,0,127);stroke-opacity:0.9;stroke-width:0.5px;"/>
        <path d="M592.848,258.914L616.453,186.262L654.652,303.816L592.848,258.914Z" style="fill:rgb(127,0,127);fill-opacity:0.9;fill-rule:nonzero;stroke:rgb(127,0,127);stroke-opacity:0.9;stroke-width:0.5px;"/>
    </g>
</svg>
